<?xml version="1.0" encoding="UTF-8" standalone="no"?>
<svg viewBox="0 0 300 300" version="1.1" sodipodi:docname="Nassr Club.svg" width="300" height="300" inkscape:version="1.4 (e7c3feb1, 2024-10-09)" xmlns:inkscape="http://www.inkscape.org/namespaces/inkscape" xmlns:sodipodi="http://sodipodi.sourceforge.net/DTD/sodipodi-0.dtd" xmlns="http://www.w3.org/2000/svg" xmlns:svg="http://www.w3.org/2000/svg">
  <sodipodi:namedview id="namedview37" pagecolor="#ffffff" bordercolor="#000000" borderopacity="0.25" inkscape:showpageshadow="2" inkscape:pageopacity="0.0" inkscape:pagecheckerboard="0" inkscape:deskcolor="#d1d1d1" inkscape:zoom="0.68067262" inkscape:cx="199.0678" inkscape:cy="232.8579" inkscape:window-width="1440" inkscape:window-height="900" inkscape:window-x="0" inkscape:window-y="0" inkscape:window-maximized="0" inkscape:current-layer="Layer_1"/>
  <defs id="defs1">
    <style id="style1">
      .cls-1 {
        fill: #fedc00;
      }

      .cls-2 {
        fill: #081c4e;
      }
    </style>
  </defs>
  <g id="g37" transform="matrix(0.55849281,0,0,0.55849281,-129.24641,-129.52565)">
    <path class="cls-2" d="M 500,231.92 C 351.9,231.92 231.42,352.4 231.42,500.5 231.42,648.6 351.9,769.08 500,769.08 648.1,769.08 768.58,648.6 768.58,500.5 768.58,352.4 648.11,231.92 500,231.92 Z m 0,526.84 c -142.4,0 -258.25,-115.85 -258.25,-258.25 0,-142.4 115.85,-258.26 258.25,-258.26 142.4,0 258.25,115.85 258.25,258.25 0,142.4 -115.85,258.25 -258.25,258.25 v 0 z" id="path1"/>
    <path class="cls-1" d="M 500,242.25 C 357.6,242.25 241.75,358.1 241.75,500.5 241.75,642.9 357.6,758.75 500,758.75 642.4,758.75 758.25,642.9 758.25,500.5 758.25,358.1 642.41,242.25 500,242.25 Z m 0,510.15 c -138.9,0 -251.9,-113 -251.9,-251.9 0,-138.9 113,-251.9 251.9,-251.9 138.9,0 251.9,113 251.9,251.9 0,138.9 -113,251.9 -251.9,251.9 z" id="path2"/>
    <path class="cls-2" d="m 500,248.6 c -138.9,0 -251.9,113 -251.9,251.9 0,138.9 113,251.9 251.9,251.9 138.9,0 251.9,-113 251.9,-251.9 0,-138.9 -113,-251.9 -251.9,-251.9 z m 213.33,255.82 c 0,0.52 -0.02,1.02 -0.03,1.54 -0.02,1.06 -0.06,2.11 -0.1,3.16 -0.02,0.54 -0.04,1.08 -0.07,1.61 -0.04,0.87 -0.09,1.75 -0.14,2.62 -0.02,0.51 -0.06,1.02 -0.1,1.53 -0.05,0.81 -0.11,1.63 -0.17,2.44 -0.46,5.93 -1.17,11.8 -2.12,17.58 -0.1,0.66 -0.21,1.33 -0.33,1.99 -0.11,0.64 -0.22,1.27 -0.34,1.9 -0.11,0.62 -0.22,1.23 -0.34,1.84 -0.14,0.72 -0.28,1.45 -0.42,2.17 -0.29,1.44 -0.6,2.87 -0.92,4.3 -0.14,0.66 -0.29,1.32 -0.44,1.97 -0.03,0.14 -0.06,0.26 -0.1,0.39 -0.14,0.64 -0.3,1.28 -0.46,1.91 -0.29,1.19 -0.59,2.38 -0.91,3.57 -0.26,0.99 -0.52,1.96 -0.8,2.94 -0.16,0.57 -0.32,1.14 -0.48,1.71 -0.06,0.21 -0.12,0.43 -0.18,0.64 -0.17,0.56 -0.33,1.12 -0.5,1.68 -0.41,1.39 -0.85,2.77 -1.29,4.15 -0.22,0.69 -0.44,1.37 -0.68,2.07 -0.23,0.68 -0.46,1.37 -0.7,2.05 -0.23,0.68 -0.47,1.37 -0.72,2.04 -0.44,1.26 -0.91,2.53 -1.38,3.77 -0.3,0.77 -0.6,1.54 -0.9,2.3 -0.25,0.67 -0.52,1.33 -0.79,2 -0.27,0.67 -0.55,1.33 -0.82,1.99 -0.83,1.99 -1.68,3.97 -2.57,5.93 -0.37,0.82 -0.75,1.63 -1.12,2.44 -0.75,1.62 -1.53,3.23 -2.34,4.83 -0.41,0.8 -0.81,1.6 -1.22,2.39 -1.95,3.81 -4.03,7.56 -6.21,11.23 -0.72,1.22 -1.45,2.44 -2.22,3.65 -0.54,0.87 -1.08,1.73 -1.64,2.59 -0.29,0.48 -0.6,0.96 -0.92,1.44 -0.16,0.24 -0.31,0.48 -0.47,0.71 -0.42,0.66 -0.86,1.32 -1.31,1.97 -0.98,1.48 -1.99,2.93 -3.03,4.38 -0.5,0.72 -1.02,1.45 -1.56,2.16 -0.51,0.71 -1.04,1.43 -1.58,2.14 -0.53,0.71 -1.07,1.41 -1.61,2.11 l -5.04,-3.85 c 1.68,-2.18 3.31,-4.4 4.89,-6.65 0.41,-0.56 0.8,-1.12 1.18,-1.69 1.97,-2.83 3.86,-5.71 5.67,-8.64 1.1,-1.76 2.17,-3.54 3.2,-5.33 0.36,-0.6 0.7,-1.19 1.03,-1.8 1.03,-1.8 2.03,-3.62 2.99,-5.47 0.33,-0.61 0.65,-1.22 0.96,-1.84 0.33,-0.62 0.64,-1.24 0.95,-1.86 0.32,-0.62 0.63,-1.24 0.92,-1.86 0.3,-0.63 0.6,-1.25 0.91,-1.87 0.91,-1.88 1.77,-3.78 2.61,-5.69 0.56,-1.27 1.11,-2.55 1.64,-3.84 0.26,-0.65 0.53,-1.29 0.79,-1.94 0.27,-0.64 0.52,-1.29 0.78,-1.95 0.26,-0.66 0.51,-1.3 0.75,-1.95 0.25,-0.65 0.5,-1.3 0.74,-1.96 0.24,-0.66 0.48,-1.31 0.72,-1.97 0.24,-0.66 0.47,-1.32 0.7,-1.99 0.46,-1.32 0.91,-2.65 1.33,-3.99 0.78,-2.4 1.51,-4.82 2.2,-7.25 0.17,-0.6 0.33,-1.19 0.5,-1.79 0.87,-3.21 1.68,-6.44 2.4,-9.72 0.13,-0.56 0.25,-1.14 0.37,-1.72 0.53,-2.49 1.02,-5 1.45,-7.52 0.11,-0.64 0.22,-1.29 0.33,-1.93 0.06,-0.36 0.12,-0.72 0.17,-1.08 0.18,-1.15 0.36,-2.3 0.52,-3.46 0.07,-0.48 0.14,-0.96 0.2,-1.45 0.07,-0.5 0.14,-1 0.2,-1.51 0.1,-0.71 0.18,-1.43 0.26,-2.14 0.25,-2.15 0.47,-4.31 0.65,-6.48 0.05,-0.55 0.1,-1.1 0.14,-1.65 0.05,-0.66 0.1,-1.32 0.14,-1.99 v -0.04 c 0.06,-0.91 0.12,-1.83 0.17,-2.75 v -0.12 c 0.04,-0.88 0.09,-1.76 0.12,-2.65 0.03,-0.72 0.06,-1.45 0.07,-2.18 0.02,-0.54 0.03,-1.08 0.05,-1.63 0.02,-0.65 0.02,-1.31 0.03,-1.96 0,-0.87 0.02,-1.73 0.02,-2.6 0,-0.87 0,-1.72 -0.02,-2.58 0,-0.64 -0.02,-1.27 -0.03,-1.91 -0.02,-0.56 -0.02,-1.14 -0.05,-1.7 -0.02,-0.71 -0.04,-1.44 -0.07,-2.15 -0.03,-0.87 -0.07,-1.76 -0.12,-2.63 v -0.13 c -0.05,-0.87 -0.1,-1.72 -0.16,-2.59 -0.06,-1.09 -0.14,-2.17 -0.24,-3.25 -0.06,-0.8 -0.13,-1.6 -0.21,-2.39 -0.08,-0.91 -0.17,-1.82 -0.27,-2.72 -0.08,-0.72 -0.16,-1.45 -0.24,-2.18 -0.07,-0.61 -0.15,-1.23 -0.23,-1.84 -0.08,-0.64 -0.16,-1.28 -0.25,-1.92 -0.21,-1.49 -0.42,-2.97 -0.66,-4.46 -0.1,-0.6 -0.19,-1.2 -0.29,-1.8 -0.02,-0.14 -0.05,-0.29 -0.07,-0.43 -0.11,-0.66 -0.22,-1.32 -0.35,-1.98 -0.1,-0.55 -0.19,-1.1 -0.29,-1.64 l -0.26,-1.33 c -0.21,-1.1 -0.43,-2.2 -0.67,-3.3 -0.14,-0.69 -0.29,-1.38 -0.45,-2.07 -0.13,-0.6 -0.26,-1.21 -0.41,-1.81 -0.05,-0.25 -0.11,-0.49 -0.17,-0.75 -0.12,-0.53 -0.24,-1.06 -0.37,-1.57 -0.53,-2.18 -1.1,-4.35 -1.7,-6.5 -0.14,-0.53 -0.29,-1.06 -0.44,-1.58 -0.02,-0.05 -0.03,-0.1 -0.05,-0.14 -0.37,-1.33 -0.77,-2.65 -1.18,-3.96 -0.83,-2.67 -1.72,-5.32 -2.65,-7.94 -0.7,-1.97 -1.43,-3.92 -2.19,-5.87 -0.75,-1.94 -1.54,-3.86 -2.36,-5.78 -0.27,-0.64 -0.55,-1.28 -0.83,-1.91 -0.27,-0.63 -0.55,-1.26 -0.83,-1.87 l -0.02,-0.05 c -2.55,-5.67 -5.35,-11.21 -8.39,-16.59 -0.34,-0.6 -0.68,-1.2 -1.02,-1.8 -0.68,-1.19 -1.38,-2.38 -2.1,-3.55 -0.36,-0.59 -0.72,-1.18 -1.07,-1.76 -0.72,-1.18 -1.45,-2.34 -2.2,-3.49 -1.49,-2.31 -3.01,-4.58 -4.6,-6.82 -0.47,-0.67 -0.94,-1.33 -1.41,-1.99 -0.72,-1.01 -1.45,-2 -2.2,-2.99 -0.41,-0.55 -0.81,-1.1 -1.24,-1.64 -7.04,-9.23 -14.84,-17.85 -23.31,-25.77 l 4.34,-4.66 c 1.64,1.53 3.25,3.09 4.83,4.67 1.59,1.57 3.15,3.18 4.69,4.81 3.08,3.27 6.05,6.62 8.91,10.07 2.93,3.52 5.75,7.13 8.44,10.84 0.07,0.1 0.15,0.21 0.23,0.32 0.06,0.08 0.12,0.17 0.17,0.25 1,1.38 1.99,2.77 2.96,4.18 1.21,1.74 2.38,3.51 3.53,5.29 0.38,0.6 0.76,1.19 1.14,1.8 0.76,1.2 1.5,2.4 2.23,3.61 0.37,0.61 0.72,1.22 1.09,1.83 0.36,0.61 0.72,1.22 1.07,1.84 0.35,0.62 0.7,1.23 1.05,1.85 0.36,0.62 0.71,1.24 1.04,1.86 0.68,1.25 1.36,2.49 2.02,3.75 0.64,1.22 1.26,2.43 1.87,3.65 0.05,0.11 0.1,0.22 0.17,0.33 0.62,1.24 1.23,2.49 1.82,3.74 0.59,1.25 1.18,2.52 1.75,3.79 0.3,0.64 0.59,1.29 0.87,1.95 0.29,0.65 0.58,1.31 0.85,1.97 0.85,1.97 1.66,3.96 2.44,5.96 0.27,0.67 0.52,1.33 0.77,2.01 0.26,0.67 0.52,1.34 0.75,2.02 0.5,1.34 0.99,2.7 1.45,4.06 0.23,0.68 0.47,1.36 0.69,2.04 0.24,0.68 0.46,1.37 0.68,2.06 0.23,0.68 0.44,1.37 0.65,2.06 0.21,0.69 0.43,1.38 0.64,2.07 0.21,0.69 0.41,1.38 0.61,2.08 0.21,0.69 0.4,1.39 0.59,2.09 0.19,0.69 0.38,1.39 0.57,2.1 0.18,0.69 0.37,1.4 0.55,2.11 0.36,1.41 0.71,2.81 1.03,4.23 0.17,0.71 0.33,1.41 0.48,2.13 0.17,0.71 0.32,1.42 0.47,2.14 0.56,2.63 1.06,5.28 1.53,7.94 0.09,0.5 0.17,1 0.25,1.5 0.08,0.45 0.15,0.91 0.22,1.37 0.12,0.72 0.23,1.45 0.33,2.18 0.07,0.44 0.14,0.9 0.2,1.35 0.17,1.18 0.33,2.37 0.47,3.56 0.07,0.56 0.14,1.12 0.2,1.68 0.09,0.73 0.17,1.47 0.25,2.21 0.16,1.49 0.3,2.99 0.43,4.5 0.06,0.72 0.12,1.45 0.17,2.17 0.06,0.75 0.11,1.49 0.15,2.24 0.1,1.49 0.17,2.99 0.24,4.49 0.02,0.4 0.03,0.79 0.05,1.19 0.02,0.71 0.05,1.41 0.06,2.13 0.02,0.6 0.03,1.22 0.04,1.83 0.02,0.54 0.02,1.09 0.02,1.64 0,0.75 0.02,1.52 0.02,2.27 0,0.75 0,1.53 -0.02,2.28 0,0.55 0,1.1 -0.02,1.64 v 0 z" id="path3"/>
    <path class="cls-1" d="m 547.04,655.7 c 1.56,-0.47 3.11,-0.96 4.64,-1.49 -1.55,0.52 -3.11,1.01 -4.69,1.49 z" id="path4"/>
    <path class="cls-1" d="m 500,332.02 c -92.9,0 -168.48,75.59 -168.48,168.49 0,92.9 75.58,168.48 168.48,168.48 92.9,0 168.49,-75.58 168.49,-168.48 0,-92.9 -75.58,-168.49 -168.49,-168.49 z m 162.08,172.67 c 0,0.55 -0.02,1.09 -0.05,1.64 -0.05,1.47 -0.12,2.93 -0.21,4.39 -0.02,0.3 -0.04,0.6 -0.06,0.91 -0.02,0.45 -0.06,0.91 -0.1,1.35 -0.06,0.74 -0.11,1.48 -0.18,2.22 -0.03,0.41 -0.07,0.8 -0.11,1.21 -0.03,0.34 -0.06,0.69 -0.1,1.03 -0.31,2.96 -0.69,5.88 -1.15,8.79 -0.13,0.76 -0.25,1.53 -0.39,2.29 -0.04,0.23 -0.08,0.47 -0.12,0.7 -0.1,0.6 -0.21,1.2 -0.33,1.8 -0.14,0.72 -0.28,1.45 -0.43,2.17 -0.11,0.55 -0.22,1.1 -0.34,1.64 -0.55,2.53 -1.15,5.04 -1.81,7.52 -0.1,0.37 -0.2,0.74 -0.3,1.1 -0.31,1.13 -0.63,2.26 -0.96,3.37 -0.19,0.64 -0.38,1.27 -0.58,1.91 -0.64,2.07 -1.33,4.13 -2.06,6.17 -0.16,0.46 -0.33,0.91 -0.49,1.36 -0.23,0.64 -0.47,1.28 -0.71,1.91 -0.17,0.46 -0.35,0.91 -0.53,1.37 -0.71,1.8 -1.44,3.57 -2.2,5.33 -0.19,0.45 -0.38,0.89 -0.58,1.33 -0.17,0.4 -0.35,0.79 -0.52,1.18 -0.25,0.53 -0.48,1.06 -0.73,1.58 -0.05,0.1 -0.1,0.21 -0.15,0.32 -0.24,0.51 -0.48,1.02 -0.72,1.53 -0.45,0.94 -0.91,1.87 -1.39,2.8 -0.24,0.48 -0.48,0.95 -0.73,1.43 -0.17,0.35 -0.36,0.69 -0.54,1.03 -0.3,0.58 -0.61,1.15 -0.92,1.72 -0.54,0.99 -1.08,1.97 -1.64,2.95 -0.51,0.9 -1.03,1.8 -1.56,2.69 -0.55,0.91 -1.1,1.83 -1.67,2.72 -0.28,0.45 -0.56,0.91 -0.85,1.35 -1.49,2.33 -3.03,4.62 -4.62,6.86 -0.56,0.79 -1.12,1.57 -1.7,2.34 -0.32,0.43 -0.64,0.86 -0.95,1.28 -0.64,0.85 -1.29,1.69 -1.94,2.53 -0.03,0.03 -0.06,0.06 -0.07,0.1 -0.64,0.8 -1.27,1.6 -1.92,2.38 -0.66,0.83 -1.34,1.64 -2.03,2.45 -0.68,0.81 -1.37,1.61 -2.09,2.41 -0.69,0.79 -1.4,1.58 -2.13,2.36 -1.43,1.56 -2.89,3.09 -4.39,4.58 -1.49,1.5 -3.01,2.97 -4.55,4.42 0,0 -0.02,0 -0.02,0.02 -0.77,0.73 -1.56,1.45 -2.35,2.14 -0.54,0.48 -1.09,0.97 -1.64,1.45 -6.05,5.28 -12.49,10.1 -19.27,14.43 -2.47,1.57 -4.98,3.09 -7.54,4.53 -0.93,0.53 -1.86,1.05 -2.8,1.55 -1.88,1.02 -3.78,1.99 -5.71,2.93 -3.85,1.88 -7.78,3.62 -11.8,5.2 -2,0.79 -4.03,1.53 -6.08,2.25 -0.52,0.17 -1.03,0.36 -1.55,0.52 -1.53,0.52 -3.08,1.02 -4.64,1.49 h -0.05 l -48.62,1.77 -19.39,-14.97 -38.79,-43.94 -25.23,-40.39 -8.56,-33.75 -14.07,-12.52 -17.43,-43.7 11.04,-11.04 15.28,22.73 c 2.9,4.31 6.16,8.37 9.77,12.11 8.99,9.33 15.31,20.91 18.3,33.52 l 2.71,11.44 14.28,13.32 25.97,37.8 10.06,41.47 63.53,-17.4 30.15,-11.69 6.71,-9.71 55.59,-33.99 v -8.52 l 17.65,-22.5 -16.27,-23.56 -15.55,-4.43 -8.26,-23.99 -17.71,17.11 -26.37,8.42 -7.76,-6.65 -1.41,-6.83 -0.4,-10.43 -7.7,5.5 h -3.87 l -18.93,-28.71 -6.51,-22.12 16.67,-0.76 12.77,20.11 40.64,20.81 20.87,-5.82 13.66,16 31.55,4.54 c 0.25,2.53 0.43,5.08 0.56,7.64 0,0.11 0,0.22 0.02,0.33 0.03,0.58 0.06,1.16 0.07,1.73 0.07,1.95 0.11,3.92 0.11,5.89 0,0.7 0,1.4 -0.02,2.1 0,0.7 -0.02,1.39 -0.04,2.09 v 0 z" id="path5"/>
    <path class="cls-1" d="m 713.37,500.5 c 0,0.76 0,1.53 -0.02,2.28 0,0.55 0,1.1 -0.02,1.64 0,0.52 -0.02,1.02 -0.03,1.54 -0.02,1.06 -0.06,2.11 -0.1,3.16 -0.02,0.54 -0.04,1.08 -0.07,1.61 -0.04,0.87 -0.09,1.75 -0.14,2.62 -0.02,0.51 -0.06,1.02 -0.1,1.53 -0.05,0.81 -0.11,1.63 -0.17,2.44 -0.46,5.93 -1.17,11.8 -2.12,17.58 -0.1,0.67 -0.21,1.33 -0.33,1.99 -0.11,0.64 -0.22,1.27 -0.34,1.9 -0.11,0.62 -0.22,1.23 -0.34,1.84 -0.14,0.72 -0.28,1.45 -0.42,2.17 -0.29,1.44 -0.6,2.87 -0.92,4.3 -0.14,0.66 -0.29,1.32 -0.44,1.97 -0.03,0.14 -0.06,0.26 -0.1,0.39 -0.15,0.64 -0.3,1.28 -0.46,1.91 -0.29,1.19 -0.6,2.38 -0.91,3.57 -0.26,0.99 -0.52,1.96 -0.8,2.94 -0.16,0.57 -0.32,1.14 -0.48,1.71 -0.06,0.21 -0.12,0.43 -0.18,0.64 -0.17,0.56 -0.33,1.12 -0.5,1.68 -0.41,1.39 -0.85,2.77 -1.29,4.15 -0.22,0.69 -0.44,1.37 -0.68,2.07 -0.23,0.68 -0.46,1.37 -0.7,2.05 -0.24,0.68 -0.48,1.37 -0.72,2.04 -0.45,1.26 -0.91,2.53 -1.38,3.77 -0.3,0.77 -0.6,1.54 -0.9,2.3 -0.26,0.67 -0.52,1.33 -0.79,2 -0.27,0.67 -0.55,1.33 -0.82,1.99 -0.83,1.99 -1.69,3.96 -2.57,5.93 -0.37,0.82 -0.75,1.63 -1.12,2.44 -0.76,1.62 -1.54,3.23 -2.34,4.83 -0.41,0.8 -0.81,1.6 -1.22,2.39 -1.96,3.81 -4.04,7.55 -6.21,11.23 -0.73,1.22 -1.47,2.44 -2.22,3.65 -0.54,0.87 -1.08,1.73 -1.64,2.59 -0.3,0.48 -0.61,0.96 -0.92,1.44 -0.16,0.24 -0.31,0.48 -0.47,0.71 -0.43,0.66 -0.87,1.32 -1.31,1.97 -0.99,1.48 -2,2.93 -3.03,4.38 -0.52,0.72 -1.03,1.45 -1.56,2.16 -0.52,0.71 -1.05,1.43 -1.58,2.14 -0.53,0.71 -1.06,1.42 -1.6,2.12 l -5.04,-3.85 c 1.68,-2.18 3.31,-4.4 4.89,-6.65 0.41,-0.56 0.8,-1.12 1.18,-1.69 1.97,-2.83 3.86,-5.71 5.67,-8.64 1.1,-1.76 2.17,-3.54 3.2,-5.33 0.36,-0.6 0.7,-1.19 1.03,-1.8 1.03,-1.8 2.03,-3.62 2.99,-5.47 0.33,-0.61 0.65,-1.22 0.96,-1.84 0.33,-0.62 0.64,-1.24 0.95,-1.86 0.32,-0.62 0.63,-1.24 0.92,-1.86 0.3,-0.63 0.6,-1.25 0.91,-1.87 0.91,-1.88 1.77,-3.78 2.61,-5.69 0.56,-1.27 1.11,-2.55 1.64,-3.84 0.26,-0.65 0.53,-1.29 0.79,-1.94 0.27,-0.64 0.52,-1.29 0.78,-1.95 0.26,-0.66 0.51,-1.3 0.75,-1.95 0.25,-0.65 0.5,-1.3 0.74,-1.96 0.24,-0.66 0.48,-1.31 0.72,-1.97 0.24,-0.66 0.47,-1.32 0.7,-1.99 0.46,-1.32 0.91,-2.65 1.33,-3.99 0.78,-2.4 1.51,-4.82 2.2,-7.25 0.17,-0.6 0.33,-1.19 0.5,-1.79 0.87,-3.21 1.68,-6.44 2.4,-9.72 0.13,-0.56 0.25,-1.14 0.37,-1.72 0.53,-2.49 1.02,-5 1.45,-7.52 0.11,-0.64 0.22,-1.29 0.33,-1.93 0.06,-0.36 0.12,-0.72 0.17,-1.08 0.18,-1.15 0.36,-2.3 0.52,-3.46 0.07,-0.48 0.14,-0.96 0.2,-1.45 0.07,-0.5 0.14,-1 0.2,-1.51 0.1,-0.71 0.18,-1.43 0.26,-2.14 0.25,-2.15 0.47,-4.31 0.65,-6.48 0.05,-0.55 0.1,-1.1 0.14,-1.65 0.05,-0.66 0.1,-1.32 0.14,-1.99 v -0.04 c 0.06,-0.91 0.12,-1.83 0.17,-2.75 v -0.12 c 0.04,-0.88 0.09,-1.76 0.12,-2.65 0.03,-0.72 0.06,-1.45 0.07,-2.18 0.02,-0.54 0.03,-1.08 0.05,-1.63 0.02,-0.65 0.02,-1.31 0.03,-1.96 0,-0.87 0.02,-1.73 0.02,-2.6 0,-0.87 0,-1.72 -0.02,-2.58 0,-0.64 -0.02,-1.27 -0.03,-1.91 -0.02,-0.56 -0.02,-1.14 -0.05,-1.7 -0.02,-0.71 -0.04,-1.44 -0.07,-2.15 -0.03,-0.87 -0.07,-1.76 -0.12,-2.63 v -0.13 c -0.05,-0.87 -0.1,-1.72 -0.16,-2.59 -0.06,-1.09 -0.14,-2.17 -0.24,-3.25 -0.06,-0.8 -0.13,-1.6 -0.21,-2.39 -0.08,-0.91 -0.17,-1.82 -0.27,-2.72 -0.08,-0.72 -0.16,-1.45 -0.24,-2.18 -0.07,-0.61 -0.15,-1.23 -0.23,-1.84 -0.08,-0.64 -0.16,-1.28 -0.25,-1.92 -0.21,-1.49 -0.42,-2.97 -0.66,-4.46 -0.1,-0.6 -0.19,-1.2 -0.29,-1.8 -0.02,-0.14 -0.05,-0.29 -0.07,-0.43 -0.11,-0.66 -0.22,-1.32 -0.35,-1.98 -0.1,-0.55 -0.19,-1.1 -0.29,-1.64 l -0.26,-1.33 c -0.21,-1.1 -0.43,-2.2 -0.67,-3.3 -0.14,-0.69 -0.29,-1.38 -0.45,-2.07 -0.13,-0.6 -0.26,-1.21 -0.41,-1.81 -0.05,-0.25 -0.11,-0.49 -0.17,-0.75 -0.12,-0.53 -0.24,-1.06 -0.37,-1.57 -0.53,-2.18 -1.1,-4.35 -1.7,-6.5 -0.14,-0.53 -0.29,-1.06 -0.44,-1.58 -0.02,-0.05 -0.03,-0.1 -0.05,-0.14 -0.37,-1.33 -0.77,-2.65 -1.18,-3.96 -0.83,-2.67 -1.72,-5.32 -2.65,-7.94 -0.7,-1.97 -1.43,-3.92 -2.19,-5.87 -0.75,-1.94 -1.54,-3.86 -2.36,-5.78 -0.27,-0.64 -0.55,-1.28 -0.83,-1.91 -0.27,-0.63 -0.55,-1.26 -0.83,-1.87 l -0.02,-0.05 c -2.55,-5.67 -5.35,-11.21 -8.39,-16.59 -0.34,-0.6 -0.68,-1.2 -1.02,-1.8 -0.68,-1.19 -1.38,-2.38 -2.1,-3.55 -0.36,-0.59 -0.72,-1.18 -1.07,-1.76 -0.72,-1.18 -1.45,-2.34 -2.2,-3.49 -1.49,-2.31 -3.01,-4.58 -4.6,-6.82 -0.47,-0.67 -0.94,-1.33 -1.41,-1.99 -0.72,-1.01 -1.45,-2 -2.2,-2.99 -0.41,-0.55 -0.81,-1.1 -1.24,-1.64 -7.04,-9.23 -14.84,-17.85 -23.31,-25.77 l 4.34,-4.66 c 1.64,1.53 3.25,3.09 4.83,4.67 1.59,1.58 3.15,3.19 4.69,4.81 3.07,3.27 6.05,6.62 8.91,10.07 1.91,2.3 3.77,4.64 5.58,7.01 0.28,0.36 0.54,0.72 0.81,1.09 0.68,0.91 1.37,1.82 2.05,2.74 0.07,0.1 0.15,0.21 0.23,0.32 0.06,0.08 0.12,0.17 0.17,0.25 1,1.38 1.99,2.77 2.96,4.18 1.2,1.75 2.38,3.51 3.53,5.29 0.38,0.6 0.76,1.19 1.14,1.8 0.75,1.19 1.49,2.4 2.23,3.61 0.37,0.61 0.72,1.22 1.09,1.83 0.36,0.61 0.72,1.22 1.07,1.84 0.35,0.62 0.7,1.23 1.05,1.85 0.35,0.62 0.7,1.24 1.04,1.86 0.68,1.25 1.36,2.49 2.02,3.75 0.64,1.22 1.26,2.43 1.87,3.65 0.05,0.11 0.1,0.22 0.17,0.33 0.61,1.24 1.22,2.49 1.82,3.74 0.59,1.26 1.18,2.52 1.75,3.79 0.29,0.65 0.58,1.3 0.87,1.95 0.29,0.66 0.57,1.31 0.85,1.97 0.84,1.97 1.65,3.96 2.44,5.96 0.26,0.67 0.52,1.34 0.77,2.01 0.25,0.67 0.51,1.34 0.75,2.02 0.49,1.34 0.98,2.7 1.45,4.06 0.24,0.68 0.47,1.36 0.69,2.04 0.23,0.68 0.45,1.37 0.68,2.06 0.22,0.68 0.44,1.37 0.65,2.06 0.21,0.69 0.43,1.38 0.64,2.07 0.21,0.69 0.41,1.38 0.61,2.08 0.2,0.69 0.4,1.39 0.59,2.09 0.19,0.69 0.38,1.39 0.57,2.1 0.18,0.69 0.37,1.4 0.55,2.11 0.36,1.41 0.71,2.81 1.03,4.23 0.17,0.71 0.33,1.41 0.48,2.13 0.16,0.71 0.32,1.42 0.47,2.14 0.56,2.63 1.06,5.28 1.53,7.94 0.09,0.5 0.17,1 0.25,1.5 0.08,0.45 0.15,0.91 0.22,1.37 0.12,0.72 0.23,1.45 0.33,2.18 0.07,0.44 0.14,0.9 0.2,1.35 0.17,1.18 0.33,2.37 0.47,3.56 0.07,0.56 0.14,1.12 0.2,1.68 0.09,0.73 0.17,1.47 0.25,2.21 0.16,1.49 0.3,2.99 0.43,4.5 0.06,0.72 0.12,1.45 0.17,2.17 0.06,0.75 0.11,1.49 0.15,2.24 0.1,1.49 0.17,2.99 0.24,4.49 0.02,0.4 0.03,0.79 0.05,1.19 0.02,0.71 0.05,1.41 0.06,2.13 0.02,0.6 0.03,1.22 0.04,1.83 0.02,0.54 0.02,1.09 0.02,1.64 0,0.75 0.02,1.52 0.02,2.27 v 0 z" id="path6"/>
    <path class="cls-1" d="m 664.23,626.37 c 1.68,-2.18 3.31,-4.39 4.9,-6.64 -1.58,2.25 -3.22,4.47 -4.89,6.65 v 0 z" id="path7"/>
    <path class="cls-1" d="m 674.07,388.58 c -1.49,-2.3 -3.02,-4.58 -4.6,-6.82 1.59,2.24 3.11,4.51 4.6,6.82 z" id="path8"/>
    <path class="cls-1" d="m 670.32,618.04 c 1.96,-2.84 3.85,-5.71 5.67,-8.64 -1.81,2.93 -3.7,5.82 -5.67,8.64 z" id="path9"/>
    <path class="cls-1" d="m 675.99,609.39 c 1.09,-1.76 2.16,-3.54 3.2,-5.33 -1.03,1.8 -2.1,3.57 -3.2,5.33 z" id="path10"/>
    <path class="cls-1" d="m 680.22,602.27 c 1.02,-1.8 2.02,-3.62 2.99,-5.47 -0.96,1.84 -1.95,3.66 -2.99,5.47 z" id="path11"/>
    <path class="cls-1" d="m 688.86,415.76 c -2.55,-5.66 -5.35,-11.2 -8.39,-16.59 3.04,5.38 5.84,10.92 8.39,16.59 z" id="path12"/>
    <path class="cls-1" d="m 686.94,589.37 c 0.9,-1.88 1.77,-3.78 2.61,-5.69 -0.84,1.91 -1.71,3.81 -2.61,5.69 z" id="path13"/>
    <path class="cls-1" d="m 293,497.86 c 0,0.88 -0.02,1.76 -0.02,2.64 0,0.88 0,1.77 0.02,2.65 v 0.09 c 0.02,0.87 0.03,1.73 0.06,2.6 0.02,0.79 0.04,1.6 0.07,2.38 0,0.15 0,0.3 0.02,0.45 0.03,0.83 0.07,1.64 0.11,2.46 0.04,0.86 0.1,1.72 0.14,2.57 0.1,1.5 0.21,2.99 0.33,4.49 0.04,0.45 0.08,0.91 0.12,1.36 0.06,0.64 0.12,1.27 0.19,1.91 0.05,0.47 0.1,0.95 0.15,1.42 0.06,0.56 0.12,1.11 0.18,1.67 0.39,3.38 0.87,6.75 1.42,10.09 0.14,0.82 0.28,1.64 0.43,2.46 0.39,2.18 0.82,4.37 1.28,6.53 0.14,0.7 0.29,1.39 0.45,2.08 0.15,0.69 0.31,1.39 0.48,2.08 0.16,0.69 0.33,1.37 0.49,2.07 0.19,0.78 0.39,1.55 0.59,2.32 0.25,0.98 0.51,1.95 0.77,2.91 0.15,0.56 0.31,1.11 0.46,1.67 0.27,0.94 0.54,1.87 0.82,2.8 0.24,0.8 0.48,1.61 0.73,2.42 0.44,1.38 0.88,2.76 1.34,4.12 0.17,0.54 0.37,1.09 0.56,1.63 0.17,0.5 0.34,1 0.52,1.49 0.28,0.79 0.56,1.59 0.86,2.38 0.2,0.55 0.4,1.09 0.6,1.63 0.91,2.41 1.86,4.79 2.85,7.16 0.19,0.46 0.38,0.92 0.59,1.38 0.27,0.64 0.54,1.28 0.83,1.91 0.56,1.27 1.13,2.53 1.72,3.8 0.29,0.63 0.59,1.26 0.89,1.89 0.29,0.63 0.6,1.26 0.91,1.87 0.3,0.63 0.61,1.24 0.92,1.86 0.63,1.24 1.26,2.47 1.91,3.69 0.32,0.61 0.64,1.22 0.98,1.84 0.65,1.22 1.33,2.43 2.01,3.63 0.33,0.6 0.68,1.2 1.03,1.8 0.34,0.6 0.69,1.19 1.05,1.79 0.7,1.19 1.41,2.38 2.15,3.54 1.81,2.93 3.7,5.82 5.67,8.64 1.95,2.84 3.98,5.62 6.08,8.34 l -5.04,3.85 c -1.29,-1.68 -2.57,-3.39 -3.81,-5.12 -2.91,-4.03 -5.67,-8.16 -8.3,-12.39 -0.75,-1.21 -1.49,-2.42 -2.22,-3.65 -2.18,-3.68 -4.25,-7.42 -6.21,-11.23 -0.98,-1.91 -1.93,-3.83 -2.86,-5.77 -1.54,-3.23 -3,-6.51 -4.39,-9.82 -0.27,-0.66 -0.55,-1.33 -0.82,-1.99 -1.35,-3.34 -2.61,-6.7 -3.8,-10.12 -0.24,-0.68 -0.47,-1.37 -0.7,-2.05 -0.92,-2.74 -1.78,-5.51 -2.59,-8.3 -0.21,-0.7 -0.41,-1.4 -0.6,-2.1 -0.24,-0.85 -0.47,-1.71 -0.7,-2.57 -0.51,-1.91 -0.99,-3.85 -1.45,-5.78 -0.02,-0.06 -0.03,-0.11 -0.04,-0.17 -0.17,-0.69 -0.33,-1.39 -0.48,-2.09 -0.17,-0.71 -0.32,-1.43 -0.47,-2.14 -0.2,-0.91 -0.38,-1.81 -0.56,-2.72 -0.25,-1.26 -0.48,-2.51 -0.71,-3.77 -0.13,-0.72 -0.25,-1.45 -0.38,-2.18 -0.13,-0.73 -0.25,-1.45 -0.36,-2.18 -0.09,-0.55 -0.17,-1.09 -0.25,-1.64 -0.07,-0.47 -0.14,-0.94 -0.21,-1.41 -0.28,-1.91 -0.53,-3.84 -0.75,-5.78 -0.06,-0.48 -0.11,-0.97 -0.16,-1.46 -0.07,-0.63 -0.14,-1.26 -0.2,-1.89 -0.08,-0.71 -0.14,-1.44 -0.21,-2.16 -0.06,-0.59 -0.11,-1.18 -0.15,-1.78 -0.04,-0.46 -0.08,-0.92 -0.12,-1.39 -0.11,-1.57 -0.21,-3.15 -0.29,-4.73 -0.02,-0.41 -0.05,-0.8 -0.06,-1.2 -0.03,-0.58 -0.06,-1.15 -0.08,-1.73 -0.05,-1.08 -0.08,-2.16 -0.1,-3.24 -0.02,-0.46 -0.02,-0.92 -0.02,-1.38 -0.02,-0.51 -0.02,-1.02 -0.02,-1.53 0,-0.75 -0.02,-1.52 -0.02,-2.28 0,-0.76 0,-1.52 0.02,-2.27 0,-0.52 0,-1.05 0.02,-1.57 0,-0.55 0.02,-1.1 0.03,-1.65 0.02,-0.91 0.05,-1.82 0.09,-2.72 0.1,-2.53 0.24,-5.05 0.42,-7.56 0.04,-0.58 0.09,-1.16 0.14,-1.74 0.04,-0.55 0.09,-1.1 0.14,-1.64 0.06,-0.67 0.12,-1.33 0.19,-1.99 0.04,-0.46 0.09,-0.93 0.14,-1.39 0.15,-1.45 0.32,-2.89 0.5,-4.33 0.04,-0.29 0.08,-0.59 0.12,-0.88 0.07,-0.6 0.15,-1.2 0.24,-1.8 0.08,-0.57 0.16,-1.14 0.25,-1.71 0.1,-0.73 0.21,-1.46 0.33,-2.18 0.41,-2.59 0.87,-5.16 1.37,-7.71 0.11,-0.6 0.23,-1.19 0.36,-1.79 0.13,-0.63 0.25,-1.26 0.4,-1.88 0.11,-0.52 0.22,-1.04 0.34,-1.56 0.16,-0.71 0.32,-1.42 0.48,-2.13 0.33,-1.42 0.68,-2.83 1.03,-4.23 0.17,-0.64 0.33,-1.28 0.5,-1.91 0.03,-0.12 0.06,-0.23 0.09,-0.33 0.17,-0.64 0.34,-1.26 0.51,-1.88 0.4,-1.42 0.8,-2.84 1.22,-4.24 0.42,-1.38 0.84,-2.76 1.29,-4.13 0.22,-0.69 0.44,-1.37 0.68,-2.06 0.22,-0.68 0.46,-1.36 0.69,-2.04 0.94,-2.72 1.93,-5.42 2.97,-8.09 1.57,-4 3.25,-7.94 5.04,-11.83 0.9,-1.94 1.82,-3.86 2.77,-5.78 0.64,-1.27 1.29,-2.53 1.95,-3.8 0.66,-1.26 1.33,-2.5 2.02,-3.75 1.37,-2.49 2.79,-4.94 4.25,-7.36 0.37,-0.61 0.74,-1.22 1.11,-1.82 0.37,-0.6 0.75,-1.2 1.12,-1.8 0.38,-0.6 0.76,-1.2 1.14,-1.8 1.15,-1.78 2.33,-3.54 3.53,-5.29 1.02,-1.49 2.07,-2.96 3.13,-4.42 0.75,-1.03 1.52,-2.04 2.28,-3.06 0.27,-0.36 0.53,-0.73 0.81,-1.09 v 0 c 7.25,-9.51 15.29,-18.4 24.02,-26.57 l 4.34,4.66 c -8.47,7.91 -16.28,16.54 -23.31,25.77 v 0 c -0.41,0.52 -0.8,1.06 -1.2,1.59 -0.41,0.56 -0.83,1.14 -1.26,1.7 -0.41,0.55 -0.81,1.1 -1.21,1.66 -0.41,0.56 -0.8,1.11 -1.18,1.68 -0.41,0.56 -0.79,1.12 -1.18,1.69 -1.18,1.69 -2.32,3.4 -3.42,5.13 -0.75,1.15 -1.49,2.31 -2.2,3.49 -0.37,0.58 -0.72,1.17 -1.07,1.76 -0.37,0.59 -0.71,1.18 -1.06,1.77 -0.35,0.59 -0.7,1.18 -1.04,1.78 -0.35,0.6 -0.69,1.19 -1.02,1.8 -0.34,0.6 -0.68,1.2 -1,1.8 -0.34,0.6 -0.67,1.21 -0.99,1.81 -0.99,1.82 -1.94,3.65 -2.86,5.51 -0.62,1.23 -1.22,2.48 -1.81,3.73 -0.3,0.63 -0.6,1.26 -0.88,1.88 -0.3,0.63 -0.59,1.26 -0.87,1.88 -0.51,1.13 -1.01,2.26 -1.5,3.41 -0.33,0.77 -0.65,1.54 -0.97,2.32 -0.27,0.64 -0.53,1.28 -0.79,1.92 -0.26,0.64 -0.52,1.29 -0.77,1.94 -0.51,1.29 -1,2.59 -1.48,3.9 -0.51,1.37 -0.99,2.75 -1.47,4.13 -0.16,0.46 -0.32,0.93 -0.48,1.39 -0.2,0.6 -0.4,1.19 -0.59,1.8 -0.17,0.5 -0.33,1.01 -0.48,1.51 -0.33,1.02 -0.65,2.07 -0.95,3.1 -0.21,0.68 -0.41,1.34 -0.6,2.02 -0.2,0.68 -0.39,1.35 -0.57,2.03 -0.16,0.56 -0.32,1.14 -0.46,1.7 -0.27,1.01 -0.53,2.01 -0.79,3.02 -0.29,1.15 -0.57,2.3 -0.84,3.46 -0.33,1.37 -0.64,2.76 -0.92,4.15 -0.15,0.69 -0.29,1.38 -0.43,2.08 -1.16,5.75 -2.07,11.59 -2.74,17.51 -0.09,0.73 -0.17,1.47 -0.24,2.21 -0.07,0.68 -0.14,1.37 -0.2,2.06 -0.05,0.45 -0.09,0.9 -0.12,1.35 -0.02,0.19 -0.04,0.39 -0.05,0.59 -0.06,0.6 -0.1,1.22 -0.14,1.82 -0.19,2.58 -0.33,5.17 -0.43,7.78 -0.02,0.73 -0.05,1.47 -0.06,2.2 -0.02,0.83 -0.04,1.68 -0.06,2.52 v 0.18 0 z" id="path14"/>
    <path class="cls-1" d="m 317.54,402.79 c -0.99,1.82 -1.93,3.65 -2.86,5.51 0.92,-1.85 1.87,-3.69 2.86,-5.51 z" id="path15"/>
    <path class="cls-1" d="m 324.01,609.39 c 1.82,2.93 3.71,5.81 5.67,8.64 -1.97,-2.83 -3.86,-5.71 -5.67,-8.64 z" id="path16"/>
    <path class="cls-1" d="m 329.35,383.45 c -1.17,1.69 -2.3,3.4 -3.42,5.13 1.1,-1.73 2.25,-3.44 3.42,-5.13 z" id="path17"/>
    <path class="cls-1" d="m 335.38,375.13 c -0.41,0.52 -0.8,1.06 -1.21,1.59 0.4,-0.53 0.79,-1.06 1.2,-1.59 v 0 z" id="path18"/>
    <path class="cls-1" d="m 335.77,626.37 v 0 c -2.1,-2.72 -4.13,-5.5 -6.08,-8.33 1.96,2.83 3.99,5.61 6.09,8.33 z" id="path19"/>
    <path class="cls-2" d="m 662.13,500.51 c 0,0.7 0,1.4 -0.02,2.1 0,0.7 -0.02,1.39 -0.04,2.09 0,0.55 -0.02,1.09 -0.05,1.64 -0.05,1.47 -0.12,2.93 -0.21,4.39 -0.02,0.3 -0.04,0.6 -0.06,0.91 -0.02,0.45 -0.06,0.91 -0.1,1.35 -0.06,0.74 -0.11,1.48 -0.18,2.22 -0.03,0.41 -0.07,0.8 -0.11,1.21 -0.03,0.34 -0.06,0.69 -0.1,1.03 -0.31,2.96 -0.69,5.88 -1.15,8.79 -0.13,0.76 -0.25,1.53 -0.39,2.29 -0.04,0.23 -0.08,0.47 -0.12,0.7 -0.1,0.6 -0.21,1.2 -0.33,1.8 -0.14,0.72 -0.28,1.45 -0.43,2.17 -0.11,0.55 -0.22,1.1 -0.34,1.64 -0.55,2.53 -1.15,5.04 -1.81,7.52 -0.1,0.37 -0.2,0.74 -0.3,1.1 -0.31,1.13 -0.63,2.26 -0.96,3.37 -0.19,0.64 -0.38,1.27 -0.58,1.91 -0.64,2.07 -1.33,4.13 -2.06,6.17 -0.16,0.46 -0.33,0.91 -0.49,1.36 -0.23,0.64 -0.47,1.28 -0.71,1.91 -0.17,0.46 -0.35,0.91 -0.53,1.37 -0.71,1.8 -1.44,3.57 -2.2,5.33 -0.19,0.45 -0.38,0.89 -0.58,1.33 -0.17,0.4 -0.35,0.79 -0.52,1.18 -0.25,0.53 -0.48,1.06 -0.73,1.58 -0.05,0.1 -0.1,0.21 -0.15,0.32 -0.24,0.51 -0.48,1.02 -0.72,1.53 -0.45,0.94 -0.91,1.87 -1.39,2.8 -0.24,0.48 -0.48,0.95 -0.73,1.43 -0.17,0.35 -0.36,0.69 -0.54,1.03 -0.3,0.58 -0.61,1.15 -0.92,1.72 -0.54,0.99 -1.08,1.97 -1.64,2.95 -0.51,0.9 -1.03,1.8 -1.56,2.69 -0.55,0.91 -1.1,1.83 -1.67,2.72 -0.28,0.45 -0.56,0.91 -0.85,1.35 -1.49,2.33 -3.03,4.62 -4.62,6.86 -0.56,0.79 -1.13,1.57 -1.7,2.34 -0.32,0.43 -0.64,0.86 -0.95,1.28 -0.64,0.85 -1.29,1.69 -1.94,2.53 -0.03,0.03 -0.06,0.06 -0.07,0.1 -0.64,0.8 -1.28,1.6 -1.92,2.38 -0.67,0.83 -1.35,1.64 -2.03,2.45 -0.69,0.81 -1.38,1.61 -2.09,2.41 -0.7,0.79 -1.41,1.58 -2.13,2.36 -1.43,1.56 -2.89,3.08 -4.39,4.58 -1.49,1.5 -3.01,2.97 -4.55,4.42 0,0 -0.02,0 -0.02,0.02 -0.78,0.72 -1.57,1.44 -2.35,2.14 -0.54,0.48 -1.09,0.97 -1.64,1.45 -6.05,5.26 -12.49,10.09 -19.27,14.43 -2.47,1.57 -4.98,3.09 -7.54,4.53 -0.93,0.52 -1.87,1.04 -2.8,1.55 -1.88,1.02 -3.78,1.99 -5.71,2.93 -3.85,1.88 -7.78,3.61 -11.8,5.2 -2,0.79 -4.03,1.53 -6.08,2.25 -0.52,0.17 -1.03,0.36 -1.55,0.52 -1.53,0.52 -3.08,1.02 -4.64,1.49 h -0.05 l -48.62,1.77 -19.39,-14.97 -38.79,-43.94 -25.23,-40.39 -8.56,-33.75 -14.07,-12.52 -17.43,-43.7 11.04,-11.04 15.28,22.73 c 2.9,4.31 6.16,8.37 9.77,12.11 8.99,9.33 15.31,20.91 18.3,33.52 l 2.71,11.44 14.28,13.32 25.97,37.8 10.06,41.47 63.53,-17.4 30.15,-11.69 6.71,-9.71 55.59,-33.99 v -8.52 l 17.65,-22.5 -16.27,-23.56 -15.55,-4.43 -8.26,-23.99 -17.71,17.11 -26.37,8.42 -7.76,-6.65 -1.41,-6.83 -0.4,-10.43 -7.7,5.5 h -3.87 l -18.93,-28.71 -6.51,-22.12 16.67,-0.76 12.77,20.11 40.64,20.81 20.87,-5.82 13.66,16 31.55,4.54 c 0.25,2.53 0.43,5.08 0.56,7.64 0,0.11 0,0.22 0.02,0.33 0.03,0.58 0.06,1.16 0.07,1.73 0.07,1.95 0.11,3.92 0.11,5.89 v 0 z" id="path20"/>
    <path class="cls-2" d="m 544.77,544.81 -3.31,-5.42 -7,4.27 -6.13,3.74 -14.46,-23.68 6.13,-3.74 7.01,-4.27 -4.27,-7 -17.02,-27.86 h -8.71 l 6.34,-3.88 -4.27,-7 -13.12,8.02 -14.55,-23.81 13.13,-8.02 -8.85,-4.21 -31.4,19.19 9.02,4.1 11.11,-6.78 14.55,23.82 4.27,7 19.38,31.73 4.27,7.01 14.46,23.67 4.27,7 7,-4.27 13.13,-8.02 -0.96,-1.58 z m -54.57,-59.82 6.13,-3.75 19.38,31.74 -6.13,3.74 z" id="path21"/>
    <polygon class="cls-2" points="555.02,542.7 547.05,540.77 548.98,532.8 556.95,534.72 " id="polygon21"/>
    <path class="cls-1" d="m 568.75,713.35 -5.58,1.64 -6.17,-21 -5.88,1.73 2.39,-6.87 1.83,-0.54 3.85,-1.13 1.72,-0.51 7.84,26.67 v 0 z" id="path22"/>
    <path class="cls-1" d="m 581.55,697.18 c -7.53,-0.79 -12.73,-13.04 -2.11,-17.76 3.5,-1.56 7.37,-0.99 9.95,1.16 1.91,1.61 3.49,4.87 3.38,7.28 -0.09,2.38 -3.36,17.56 -3.36,17.56 l -6.44,2.86 2.3,-11.68 c -1.18,0.49 -2.49,0.73 -3.73,0.59 v 0 z m 0.08,-12.62 c -2.44,1.08 -2.76,3.28 -1.93,5.02 l 0.03,0.06 c 0.41,0.93 1.12,1.6 1.98,1.99 0.91,0.44 1.97,0.49 3.07,0 l 0.23,-0.1 c 1.75,-0.93 2.52,-3.07 1.72,-4.93 -0.18,-0.52 -0.5,-1.02 -0.93,-1.41 -1.07,-0.99 -2.7,-1.29 -4.16,-0.64 v 0 z" id="path23"/>
    <path class="cls-1" d="m 609.84,662.64 2.94,4.7 -7.49,4.68 1.51,4.37 c 0.1,-0.11 0.19,-0.23 0.26,-0.38 1.37,-2.07 3.87,-3.47 6.31,-3.55 7.72,-0.23 14.78,11.53 4.79,17.77 -4.38,2.74 -9.91,1.76 -12.67,-2.11 l 4.98,-3.11 c 1.29,1.18 3.26,1.4 4.81,0.43 1.84,-1.14 2.38,-3.54 1.26,-5.33 -1.14,-1.84 -3.54,-2.38 -5.37,-1.24 -1.56,0.97 -2.22,2.83 -1.72,4.51 l -0.23,-0.02 -3.25,0.92 -1.67,0.43 -5.65,-15.08 z" id="path24"/>
    <path class="cls-1" d="m 631.91,645.17 3.58,4.23 -6.74,5.7 2.13,4.11 c 0.08,-0.13 0.15,-0.25 0.2,-0.41 1.06,-2.25 3.33,-3.99 5.73,-4.42 7.61,-1.33 16.29,9.28 7.29,16.9 -3.94,3.34 -9.56,3.17 -12.84,-0.26 l 4.48,-3.8 c 1.45,0.99 3.42,0.91 4.82,-0.27 1.65,-1.4 1.85,-3.85 0.48,-5.46 -1.4,-1.65 -3.85,-1.85 -5.5,-0.45 -1.4,1.18 -1.79,3.11 -1.06,4.71 l -0.23,0.02 -3.08,1.37 -1.59,0.67 -7.76,-14.11 10.07,-8.53 v 0.02 z" id="path25"/>
    <path class="cls-1" d="m 371.49,647.33 1.37,1.12 3.85,3.15 c 3.48,2.85 3.88,7.94 1.03,11.43 -2.24,2.74 -5.82,3.55 -8.99,2.61 l 0.06,15.41 -5.85,-4.78 0.26,-14.53 -0.75,-0.61 -7.22,8.83 -4.73,-3.87 17.6,-21.52 3.36,2.75 v 0 z m -5.76,9.82 3.36,2.75 c 1.12,0.91 2.93,0.74 3.85,-0.38 1.02,-1.24 0.83,-3.05 -0.29,-3.97 l -3.36,-2.75 z" id="path26"/>
    <path class="cls-1" d="m 398.34,667.76 -14.86,23.49 -5.04,-3.19 14.86,-23.49 z" id="path27"/>
    <path class="cls-1" d="m 412.57,675.72 1.07,11.62 9.58,-6.66 6.78,3.15 -15.26,9.29 -0.41,0.27 -5.28,11.34 -5.86,-2.73 5.28,-11.34 -0.05,-0.48 -2.71,-17.66 6.86,3.19 v 0 z" id="path28"/>
    <path class="cls-1" d="m 448.87,689.45 3.63,29.99 -6.14,-1.76 -0.65,-6.45 -11.05,-3.18 -3.99,5.12 -6.14,-1.76 19.03,-23.47 5.32,1.53 v -0.02 z m -3.78,16.23 -1.13,-9.43 -5.83,7.42 6.96,2 v 0 z" id="path29"/>
    <path class="cls-1" d="m 474.85,694.78 3.44,0.35 c 7.57,0.77 13.27,7.6 12.49,15.31 -0.77,7.57 -7.73,13.12 -15.29,12.35 l -3.44,-0.35 -6.05,-0.61 2.8,-27.66 z m -2.23,22.01 3.44,0.35 c 4.13,0.42 7.93,-2.81 8.35,-6.94 l 0.09,-0.83 c 0.44,-4.27 -2.66,-8.06 -6.78,-8.48 l -3.44,-0.35 -1.65,16.24 v 0 z" id="path30"/>
    <path class="cls-1" d="m 508.35,696.22 0.41,5.82 0.35,4.96 3.57,-0.25 3.74,-0.26 3.39,-0.24 0.26,-0.02 -0.35,-4.96 -0.41,-5.82 6.09,-0.43 0.41,5.82 0.37,5.13 0.41,5.82 0.77,10.96 -6.09,0.43 -0.77,-10.96 v -0.09 l -0.27,0.02 -3.39,0.24 -3.74,0.26 -3.57,0.25 v 0.09 l 0.78,10.96 -6.09,0.43 -0.77,-10.96 -0.41,-5.82 -0.37,-5.13 -0.41,-5.82 z" id="path31"/>
    <g id="g36">
      <path class="cls-1" d="m 386.53,299.88 2.42,-1.24 28.69,13.66 -11.5,-22.46 0.91,-0.46 6.03,-3.09 0.91,-0.46 18.53,36.17 -6.94,3.55 -28.91,-13.35 11.65,22.76 -7.99,4.09 -18.76,-36.62 4.97,-2.55 v 0 z" id="path32"/>
      <path class="cls-1" d="m 459.82,273.87 25.28,36.35 -9.18,1.92 -5.28,-7.91 -16.52,3.46 -1.66,9.37 -9.18,1.92 8.56,-43.44 7.95,-1.66 v 0 z m 6.22,23.6 -7.93,-11.43 -2.47,13.61 z" id="path33"/>
      <path class="cls-1" d="m 523.01,276.36 -5.89,5.61 c 0,0 0,-0.28 -0.79,-1.13 -0.79,-0.85 -1.6,-1.15 -1.6,-1.15 -1.6,-1.15 -5.42,-1.26 -7.34,-0.77 -2.21,1.03 -2.55,3.23 -0.69,4.93 1.59,1.7 4.57,2.34 6.72,3.23 4.04,1.49 7.26,3.52 8.79,7.14 2.3,5.02 1.33,10.5 -2.59,13.97 -2.8,2.39 -7.76,4.45 -15.61,2.57 -7.85,-1.88 -9.62,-6.62 -9.62,-6.62 l 6.98,-5.85 c 0,0 1.29,2.52 4.24,3.98 3.23,1.47 5.97,1 7.63,-0.05 1.39,-1.06 1.47,-3.54 -0.13,-4.96 -1.59,-1.7 -3.5,-1.76 -8.34,-3.82 -2.96,-1.46 -6.7,-3.77 -7.7,-7.11 -0.5,-1.39 -0.45,-3.04 -0.41,-4.42 0.12,-4.12 2.13,-7.65 5.47,-9.76 6.12,-3.95 16.71,-2.53 20.87,4.19 v 0.02 z" id="path34"/>
      <path class="cls-1" d="m 569.15,286.05 -6.93,4.26 c 0,0 0.06,-0.27 -0.53,-1.26 -0.59,-0.99 -1.33,-1.45 -1.33,-1.45 -1.33,-1.45 -5.04,-2.36 -7.01,-2.28 -2.38,0.56 -3.16,2.63 -1.7,4.69 1.2,1.99 3.98,3.23 5.9,4.55 3.65,2.3 6.36,4.95 7.11,8.81 1.21,5.39 -0.89,10.55 -5.44,13.12 -3.23,1.76 -8.52,2.74 -15.81,-0.74 -7.28,-3.47 -8.03,-8.48 -8.03,-8.48 l 8.06,-4.27 c 0,0 0.74,2.73 3.32,4.77 2.85,2.11 5.63,2.22 7.48,1.54 1.58,-0.75 2.17,-3.15 0.91,-4.88 -1.2,-1.99 -3.05,-2.45 -7.36,-5.47 -2.58,-2.05 -5.78,-5.09 -6.05,-8.56 -0.21,-1.47 0.19,-3.07 0.52,-4.41 0.98,-4.01 3.68,-7.04 7.37,-8.4 6.8,-2.59 16.87,0.99 19.54,8.44 v 0 z" id="path35"/>
      <path class="cls-1" d="m 599.37,292.21 2.31,1.23 6.51,3.46 c 5.88,3.12 7.98,10.32 4.93,16.08 -2.41,4.53 -7.32,6.67 -12.18,6.2 l 4.72,22.05 -9.87,-5.24 -4,-20.87 -1.26,-0.67 -7.77,14.62 -7.98,-4.24 18.92,-35.61 5.67,3.01 v 0 z m -5.35,15.63 5.67,3.01 c 1.89,1.01 4.45,0.25 5.43,-1.6 1.1,-2.06 0.29,-4.6 -1.6,-5.6 l -5.67,-3.01 -3.83,7.21 z" id="path36"/>
    </g>
  </g>
</svg>