<?xml version="1.0"?>
<svg viewBox="0 0 220.68866 300" width="220.68866" height="300" xmlns="http://www.w3.org/2000/svg">
<style
   type="text/css"
   id="style1">
	.st0{fill:#0058A3;}
	.st1{fill:#FDCE07;}
	.st2{fill-rule:evenodd;clip-rule:evenodd;fill:#FDCE07;}
	.st3{fill-rule:evenodd;clip-rule:evenodd;fill:#0058A3;}
</style>
<g
   id="g29"
   transform="matrix(0.43221438,0,0,0.43221438,-105.76286,-66.1288)"><path
     class="st0"
     d="m 680.5,411.3 c -46.2,-46.2 -110,-74.8 -180.5,-74.8 -70.5,0 -134.3,28.6 -180.5,74.8 -46.2,46.2 -74.8,110 -74.8,180.5 0,70.5 28.6,134.3 74.8,180.5 46.2,46.2 110,74.8 180.5,74.8 70.5,0 134.3,-28.6 180.5,-74.8 46.2,-46.2 74.8,-110 74.8,-180.5 -0.1,-70.5 -28.6,-134.3 -74.8,-180.5 z"
     id="path1"
     style="fill:#22558c" /><path
     class="st1"
     d="m 500,345.9 c 33.1,0 64.8,6.6 93.9,18.7 30.2,12.5 57.3,30.8 79.9,53.3 22.6,22.6 40.8,49.7 53.3,79.9 12,29.1 18.7,60.8 18.7,93.9 0,33.1 -6.6,64.8 -18.7,93.9 -12.5,30.2 -30.8,57.3 -53.3,79.9 -22.6,22.6 -49.7,40.8 -79.9,53.3 -29.1,12 -60.8,18.7 -93.9,18.7 -33.1,0 -64.9,-6.6 -93.9,-18.7 -30.2,-12.5 -57.3,-30.8 -79.9,-53.3 -22.6,-22.6 -40.8,-49.7 -53.3,-79.9 -12,-29.1 -18.7,-60.8 -18.7,-93.9 0,-33.1 6.6,-64.9 18.7,-93.9 12.5,-30.2 30.8,-57.3 53.3,-79.9 22.6,-22.6 49.7,-40.8 79.9,-53.3 29,-12 60.8,-18.7 93.9,-18.7 z"
     id="path2"
     style="display:inline;fill:#FED32C" /><path
     class="st0"
     d="M 706.1,506.5 C 694.8,479.2 678.2,454.6 657.7,434.1 637.2,413.6 612.6,397 585.3,385.7 559,374.8 530.2,368.8 500.1,368.8 c -30.2,0 -59,6 -85.2,16.9 -27.3,11.3 -51.9,27.9 -72.4,48.4 -20.6,20.5 -37.1,45.1 -48.4,72.4 -11.1,26.3 -17.1,55.1 -17.1,85.3 0,30.2 6,59 16.9,85.2 11.3,27.3 27.9,51.9 48.4,72.4 20.6,20.5 45.1,37.1 72.4,48.4 26.3,10.9 55.1,16.9 85.2,16.9 30.2,0 59,-6 85.2,-16.9 27.3,-11.3 51.9,-27.9 72.4,-48.4 20.5,-20.6 37.1,-45.1 48.4,-72.4 10.9,-26.3 16.9,-55.1 16.9,-85.2 0.2,-30.2 -5.8,-59 -16.7,-85.3 z"
     id="path3"
     style="fill:#22558c" /><circle
     transform="matrix(0.7071,-0.7071,0.7071,0.7071,-271.9969,526.8807)"
     class="st2"
     cx="500"
     cy="591.79999"
     id="ellipse3"
     r="151"
     style="display:inline;fill:#FED32C" /><path
     class="st3"
     d="m 374.9,525.6 9.1,7.5 4.8,-8 c 1,8.4 3.6,14 6.6,18.5 3.9,5.9 8.8,7.9 10.7,14.9 0.7,2.6 5,8.1 9.9,12.6 6.2,5.6 10.5,8 13.8,10.4 v 8.4 c -3.1,4.1 -6.4,8.9 -1.9,12.8 3.3,2.9 5,3.1 10.3,4.3 v 7.4 c 3,2.6 3.8,4.1 5.6,8.5 1.6,3.8 3.1,7.6 4.3,12.3 4.4,1.3 8.1,3.1 12,7 v 19.7 l 5.7,3.1 c 0.4,10.4 4.7,11.8 7.1,17.7 5.2,-1.2 10.5,-1.9 15.7,-1.8 v -4.3 c 5.2,-0.2 6.9,-1.1 9.8,-2.1 7.8,-2.6 8.4,-4.8 13,-7.3 4.4,-2.5 10.2,-3.7 15.6,-6.6 4,-2.1 10.8,-6.3 15.6,-9.3 3.5,-2.2 6.4,-3.7 7.7,-6.8 0.5,-1.3 0.5,-2.8 0.5,-5 4.5,-0.1 7.9,-0.6 10.8,-2.6 2.6,-1.8 4.1,-2.1 7.4,-3.1 v -6 h 5.1 c 1.2,-3.5 2.1,-5.4 4.6,-6.8 1.3,-0.8 2.6,-1.4 4.1,-2 3.3,-1.4 2.4,-6.9 7.8,-7.1 l 2.4,-19.9 13.5,-2.6 v -20 c -3.4,-1.9 -4.2,-4.3 -7.9,-5.6 -4.3,-1.4 -9.8,-2.3 -15.1,-3.2 -7.5,-1.3 -8.6,-4.8 -8.8,-8.1 -0.1,-1.7 -0.4,-3.8 -2.1,-4.9 -1.7,-1 -1.7,-0.8 -3.4,-1.9 -3.3,-2 -4.7,1 -8.5,3.5 -2.5,1.7 0.2,5.3 -2.4,8.4 -2.8,3.2 -16.3,3.2 -20.2,3.9 -1.9,-2.9 -2.2,-4.1 -3.1,-7.4 -0.8,-3.1 -0.2,-5.1 -5.2,-5.1 -2.6,0 -3.9,0.5 -5.6,1.7 0,-4.5 -0.1,-8.2 -4.6,-13.5 -1,-1.2 -5.2,-4.5 -6.1,-5.8 -1.8,-2.5 -1.8,-3.1 -2.7,-4.9 -0.5,-0.8 -1.6,-2.1 -3.3,-2.1 -1.1,0 -1.4,-1.4 -1.6,-3.2 -0.3,-3.9 -3.1,-4.7 -4.7,-7.8 l 7.4,-0.5 -0.1,-7.5 12.3,1.3 c 0.5,5.5 2,8.9 4.2,12.6 3.1,5.1 4.6,2.9 6.8,4.5 1.5,1.1 2.1,3.2 3.7,4.2 1.2,0.7 3.9,0.6 5.2,1.2 1.7,0.8 2.5,2.9 4.2,3.5 6.1,2.3 12.2,2.2 18.6,2.2 3.8,0 7.4,-5.1 11.1,-4.1 4.3,1.2 3.9,3.8 5.8,6 1,1.2 2.1,2.6 3.4,3.4 2,1.2 4.9,1.8 8.4,1.8 4.9,0 6.8,-2.6 14.2,-2.8 1.3,-2.7 2.1,-9.3 2.4,-12.9 11.3,23.3 14.2,41.5 13.9,61.7 -0.4,25.7 -7,49 -20,69.5 -13.3,21.1 -33.3,39.2 -60.1,51.6 v -18.6 c -2.5,-3.8 -2.9,-4.2 -20,-2.3 -4.8,0.5 -9.7,1.7 -13.3,3.6 -5.1,2.6 -8.6,6 -15.6,6 -3.3,0 -8.8,6.2 -16.7,5 v -9.7 c -4.2,-0.8 -9,-0.7 -13.7,-3.8 l 1.6,-9.8 c -5.4,-2.9 -8.4,-4.7 -11.2,-14 H 449 c -4,-3.2 -10.5,-6.1 -14.4,-10 -0.5,-0.5 -3.6,-4.7 -4.7,-6.3 l -0.5,-16.7 c -3.7,-2.8 -10.5,-4.8 -15.3,-12.3 -2.6,-4.1 -2.7,-11.5 -3.4,-16 -0.8,-4.9 -4.7,-15.8 -7.7,-16.7 -2.2,-0.6 -3.8,-2.2 -5.3,-4.1 -2,-2.5 -3,-3.6 -3.9,-5 l -1.9,-21.7 -10.1,-6.9 1.9,-9.7 z"
     id="path4"
     style="display:inline;fill:#22558c" /><g
     id="g28"><path
       class="st3"
       d="m 462.8,524.4 c -4.2,0.1 -7.7,-0.6 -10.8,-1.9 l -12,8.4 c -5.5,3.9 -11.1,-0.3 -11.5,-11.1 -3.8,8.7 -1.5,12.8 1.6,15.5 3,2.7 9.2,5.6 16.9,0.2 l 68.3,97.3 25.5,-18 c -4.3,-0.1 -8.1,-0.5 -11,-1.8 l -12.6,8.9 -7.5,-10.7 c 7,-4.5 9.2,-13.7 4.2,-21 l -18.4,-26.1 6.7,-4.7 c -4.5,0.5 -8.2,-0.1 -11.2,-1.7 l -12.6,8.9 -25,-35.6 z m 20.1,48.6 6.3,-4.4 18.6,26.4 c 3.2,4.6 0.7,7.7 -2.5,9.7 z"
       id="path5"
       style="display:inline;fill:#22558c" /><path
       class="st3"
       d="m 548,599.5 c 2.7,0 4.8,2.1 4.8,4.8 0,2.6 -2.1,4.8 -4.8,4.8 -2.6,0 -4.8,-2.1 -4.8,-4.8 0,-2.7 2.2,-4.8 4.8,-4.8 z"
       id="path6"
       style="display:inline;fill:#22558c" /></g><path
     class="st0"
     d="m 624.3,267.6 c 0,0 0,0 0,0 13.8,-18.3 8.1,-37.2 0.6,-47.4 -8.1,-11 -29.9,-21.8 -47.7,-16 -2.4,-3.4 -6.7,-2.8 -8.6,0.7 -6.5,-11 -18.4,-16.2 -32.3,-16 -8.1,0.1 -17.2,2.1 -27.5,6 -1.5,-3.2 -3.5,-7.1 -6.3,-12.1 l 5.7,-11.5 0.6,-1.2 -0.6,-1.2 -5.9,-11.3 -2.3,-4.6 -2.4,4.6 -5.9,11.3 -0.6,1.2 0.6,1.2 5.7,11.5 c -2.8,5.1 -4.8,8.9 -6.3,12.1 -10.3,-3.9 -19.4,-5.9 -27.5,-6 -13.9,-0.1 -25.8,5.1 -32.3,16 -1.9,-3.5 -6.1,-4.1 -8.6,-0.7 -17.8,-5.8 -39.6,5 -47.7,16 -7.4,10.2 -13.1,29.1 0.7,47.3 0,0 0,0 -0.1,0 -3.2,2.2 -4.2,4.7 -6.3,7.7 4.2,-0.4 8.1,-0.9 11.9,1.5 2,1.3 3,3 4.6,5.6 -3,2.3 -2.7,12.6 6.3,10.2 2.9,3.7 5.9,6.3 9,8.3 2.9,1.9 6.1,2.8 8.8,3 -0.6,0.3 -1.1,0.7 -1.5,1.3 -0.4,0.7 -0.6,1.6 -0.4,2.5 0.2,0.9 0.8,1.6 1.5,2.1 0.7,0.4 1.6,0.6 2.5,0.4 0.6,-0.1 1.2,-0.3 1.7,-0.4 l 1.2,2.7 -6.1,6.7 10.3,3 0.7,1.6 c -0.2,0.1 -0.4,0.2 -0.5,0.4 -0.5,0.4 -0.9,0.8 -1.3,1.2 -0.6,0.8 -0.9,1.8 -0.7,2.7 0,0.2 0.1,0.5 0.2,0.7 0.1,0.2 0.2,0.3 0.3,0.5 1.3,1.7 3.3,1.4 6.1,0.9 0.6,-0.1 1.2,-0.2 1.9,-0.3 2.7,-0.4 5.7,-0.8 8.1,-1.2 2.8,-0.4 5.3,-0.8 6.1,-0.9 7.2,-1.2 16.9,-2.1 26.9,-2.7 11.3,-0.7 23.3,-1.1 33,-1.1 9.7,0 21.6,0.4 33,1.1 10.1,0.6 19.7,1.6 26.9,2.7 0.8,0.1 3.3,0.5 6.1,0.9 2.4,0.4 5.4,0.8 8.1,1.2 0.7,0.1 1.3,0.2 1.9,0.3 2.8,0.5 4.8,0.8 6.1,-0.9 0.1,-0.2 0.2,-0.3 0.3,-0.5 0.1,-0.2 0.2,-0.5 0.2,-0.7 0.2,-0.9 -0.1,-1.9 -0.7,-2.7 -0.3,-0.4 -0.8,-0.8 -1.3,-1.2 -0.2,-0.1 -0.3,-0.2 -0.5,-0.4 l 0.7,-1.6 10.3,-3 -6.1,-6.7 1.2,-2.7 c 0.6,0.1 1.1,0.3 1.7,0.4 0.9,0.2 1.8,0.1 2.5,-0.4 0.7,-0.4 1.3,-1.2 1.5,-2.1 0.2,-0.9 0.1,-1.8 -0.4,-2.5 -0.3,-0.6 -0.8,-1 -1.5,-1.3 2.7,-0.2 5.9,-1.1 8.8,-3 3,-1.9 6.1,-4.5 9,-8.3 9,2.4 9.3,-7.9 6.3,-10.2 1.6,-2.7 2.6,-4.4 4.6,-5.6 3.8,-2.4 7.7,-1.9 11.9,-1.5 -1.9,-2.9 -3,-5.4 -6.2,-7.6 z m -12.7,-50.1 c 7.7,6.2 14.5,20.3 3.5,35.6 l 3.4,13.7 c -1,0.4 -1.9,1 -2.6,1.6 -0.3,-1.6 -0.9,-3.1 -1.6,-4.2 -3.6,2.4 -5.3,4.3 -7.6,9.9 -0.6,-0.7 -1.2,-1.3 -1.9,-1.8 -1.5,-1 -3.7,-1.2 -5.4,-1.1 -2.4,0.1 -3.1,-2.3 -3.7,-4.2 -2.1,0.8 -2.2,3.3 -1.2,5.9 -2.4,1 -5.4,2.4 -7.7,3.6 l 2.2,2.1 c 1.6,1.9 3.9,3.6 6,5.3 -2.1,0.9 -2.4,0.2 -4.6,-0.1 -0.5,3.1 4,6.3 9.6,5.2 -0.9,1.2 -1.6,2.4 -2.8,3.3 -2.9,2.4 -5.9,4 -8.4,3.9 -2.2,0 -3.7,-2.2 -4.8,-4.1 1.2,-0.3 2.3,-0.9 3.1,-1.8 1.1,-1.2 1.7,-2.8 1.7,-4.6 0,-1.8 -0.7,-3.4 -1.7,-4.5 -1.1,-1.2 -2.7,-2 -4.5,-2 -1.8,0 -3.3,0.8 -4.5,2 -1.1,1.2 -1.7,2.8 -1.7,4.5 0,1.3 0.4,2.6 1,3.6 -2.3,1.6 -5.1,3.4 -7.7,3.4 -2.4,0 -4.8,-2.2 -6.1,-4.1 -1.4,-2 -2.2,-4.9 -2.1,-7.9 0,-0.4 0,-0.8 0.1,-1.2 0.4,1.2 3.1,1.1 4.7,1.1 3.6,0 4.6,0.9 6.2,5.2 1.9,-2.8 1.7,-6.2 0.4,-9 5.1,0.4 6.9,-1.2 9.9,-3.3 -4.6,-1.3 -5.5,-4.3 -8.4,-6.7 1.2,-1.7 1.9,-3.4 2.2,-5 -2.5,0.2 -5,0.5 -7.5,0.7 0.6,-4.4 2.9,-6 6.5,-8.3 -3,-1.7 -5.5,-2.3 -9,-0.3 -0.3,-3.1 -1.4,-5.9 -2.8,-8.5 6.4,-9.2 9.9,-18.3 8.7,-29.7 18.3,-7.3 32.1,-3.9 39.1,1.8 z M 500,306.1 h 8.5 c 1.1,0 2,0.9 2,2 0,1.1 -0.9,2 -2,2 h -8.5 -8.5 c -1.1,0 -2,-0.9 -2,-2 0,-1.1 0.9,-2 2,-2 z m -19.7,2.1 c 0,2.2 -1.6,3.9 -3.6,3.9 -2,0 -3.6,-1.8 -3.6,-3.9 0,-2.2 1.6,-3.9 3.6,-3.9 2,0 3.6,1.7 3.6,3.9 z m -14.2,1.3 c 0.2,1.1 -0.6,2.1 -1.7,2.3 l -13.4,2 c -1.1,0.2 -2.1,-0.6 -2.3,-1.7 -0.2,-1.1 0.6,-2.1 1.7,-2.3 l 13.4,-2 c 1.1,-0.1 2.1,0.6 2.3,1.7 z m -25.4,3.6 c 0,2.2 -1.6,3.9 -3.6,3.9 -2,0 -3.6,-1.8 -3.6,-3.9 0,-2.2 1.6,-3.9 3.6,-3.9 2,0 3.6,1.7 3.6,3.9 z m 79,-4.9 c 0,-2.2 1.6,-3.9 3.6,-3.9 2,0 3.6,1.8 3.6,3.9 0,2.2 -1.6,3.9 -3.6,3.9 -2,0 -3.6,-1.7 -3.6,-3.9 z m 14.2,1.3 c 0.2,-1.1 1.2,-1.9 2.3,-1.7 l 13.4,2 c 1.1,0.2 1.9,1.2 1.7,2.3 -0.2,1.1 -1.2,1.9 -2.3,1.7 l -13.4,-2 c -1.1,-0.2 -1.8,-1.2 -1.7,-2.3 z m 25.4,3.6 c 0,-2.2 1.6,-3.9 3.6,-3.9 2,0 3.6,1.8 3.6,3.9 0,2.2 -1.6,3.9 -3.6,3.9 -1.9,0 -3.6,-1.7 -3.6,-3.9 z m -70.4,-112 c -1.1,4 -1.3,7.8 -1.2,13.2 v 0 1 c 0.1,5.8 0.2,11.5 -2.9,15.4 l -1.1,1.3 0.9,1.4 5.7,9.4 c -1.4,-0.2 -3.1,0.2 -5.2,1.3 3.7,1.4 0.8,4.2 0.8,6.2 -4.5,0.1 -6.9,0.3 -10.2,-1.2 -0.1,3.9 0.1,5.5 2.3,8.8 0.2,0.4 0.5,0.7 0.8,1.1 -3.4,2.2 -3.1,3.4 -7.2,4.3 1,3.4 2.5,6 7.6,6.5 -1,2.3 -1.3,4.8 -1.2,7.4 2.7,-0.7 3.4,-3.5 5.2,-4.2 4,-1.6 8,-0.3 11.9,-1.6 1.8,7.9 -5.3,15.7 -11,15.8 -3.3,0.1 -7.8,-3.1 -10.9,-7.1 0.8,-1.1 1.4,-2.5 1.4,-4.1 0,-1.8 -0.7,-3.4 -1.7,-4.5 -1.1,-1.2 -2.7,-2 -4.5,-2 -1.8,0 -3.3,0.8 -4.5,2 -1.1,1.2 -1.7,2.8 -1.7,4.5 0,1.8 0.7,3.4 1.7,4.6 0.7,0.7 1.5,1.3 2.4,1.6 -2,2.6 -3.1,3.7 -5.1,4.9 -2,1.2 -4.1,1.8 -5.7,1.7 -2.4,0 -5.1,-1.5 -7.2,-4 -1.3,-1.6 -2.6,-3.9 -3,-6.8 1.7,0 3.6,-0.2 5.2,-0.4 4.2,-0.6 4.8,-1.5 8.8,1.5 -0.3,-3 -0.3,-5.3 -1.9,-7.3 2,-0.3 4.2,-1 5.9,-3.5 l 2.3,-3.6 c -1.5,-0.4 -2.8,-0.1 -4.2,-0.1 -0.8,-0.2 -1.6,-0.8 -2.5,-1.2 -1,-0.5 -1.9,-1.2 -3.1,-1.6 1,-2.2 1.2,-6.6 -1.5,-8.8 -1.2,4.1 -2.6,4.9 -6.2,4.9 -0.2,-3.6 0.6,-6.5 1.8,-9.8 -3.4,-0.4 -5.7,1 -7.3,3.9 -0.6,-1.6 -1.3,-3 -2,-4.4 L 445,240 c -13.8,-17.5 -7,-32.5 0.7,-39 7.4,-6.1 21.7,-8.8 43.2,0.1 z m 65.3,0 c 7.7,6.4 14.5,21.5 0.7,39 l 4.4,7.6 c -0.7,1.4 -1.4,2.8 -2,4.4 -1.5,-2.9 -3.9,-4.3 -7.3,-3.9 1.2,3.3 2,6.2 1.8,9.8 -3.6,-0.1 -5,-0.8 -6.2,-4.9 -2.7,2.2 -2.5,6.6 -1.5,8.8 -1.2,0.4 -2.1,1.1 -3.1,1.6 -0.9,0.4 -1.7,1.1 -2.5,1.2 -1.4,-0.1 -2.7,-0.3 -4.2,0.1 l 2.3,3.6 c 1.7,2.5 3.9,3.2 5.9,3.5 -1.5,1.9 -1.5,4.2 -1.9,7.3 4,-3 4.6,-2.1 8.8,-1.5 1.6,0.2 3.5,0.4 5.2,0.4 -0.4,3 -1.7,5.2 -3,6.8 -2.1,2.6 -4.8,4 -7.2,4 -1.6,0 -3.7,-0.5 -5.7,-1.7 -2,-1.2 -3.1,-2.3 -5.1,-4.9 0.9,-0.3 1.8,-0.9 2.4,-1.6 1.1,-1.2 1.7,-2.8 1.7,-4.6 0,-1.8 -0.7,-3.4 -1.7,-4.5 -1.1,-1.2 -2.7,-2 -4.5,-2 -1.8,0 -3.3,0.8 -4.5,2 -1.1,1.2 -1.7,2.8 -1.7,4.5 0,1.5 0.5,2.9 1.4,4.1 -3,4 -7.6,7.2 -10.9,7.1 -5.7,-0.2 -12.8,-8 -11,-15.8 4,1.4 8,0 11.9,1.6 1.7,0.7 2.4,3.5 5.2,4.2 0.2,-2.6 -0.1,-5.1 -1.1,-7.4 5.1,-0.6 6.6,-3.1 7.6,-6.5 -4.1,-0.9 -3.7,-2.1 -7.2,-4.3 0.3,-0.3 0.5,-0.7 0.8,-1.1 2.2,-3.3 2.4,-4.9 2.3,-8.8 -3.4,1.5 -5.7,1.3 -10.2,1.2 0,-2 -2.9,-4.8 0.8,-6.2 -2.2,-1.1 -3.9,-1.4 -5.2,-1.3 l 5.7,-9.4 0.9,-1.4 -1.1,-1.3 c -3.1,-3.8 -3,-9.5 -2.9,-15.4 v -1 0 c 0.1,-5.5 -0.1,-9.2 -1.2,-13.2 21.5,-9 35.8,-6.3 43.1,-0.1 z m 5.4,64 c 1.9,0 3.4,1.6 3.4,3.6 0,2 -1.5,3.6 -3.4,3.6 -1.9,0 -3.4,-1.6 -3.4,-3.6 -0.1,-2 1.5,-3.6 3.4,-3.6 z M 500,209.4 c -1.8,0 -3.2,-1.4 -3.2,-3.2 0,-1.7 1.4,-3.2 3.2,-3.2 1.7,0 3.2,1.4 3.2,3.2 0,1.8 -1.5,3.2 -3.2,3.2 z m 0,15.1 c 1.7,0 3.2,1.4 3.2,3.2 0,1.7 -1.4,3.2 -3.2,3.2 -1.8,0 -3.2,-1.4 -3.2,-3.2 0,-1.8 1.4,-3.2 3.2,-3.2 z m 0,33.1 c 1.9,0 3.4,1.6 3.4,3.6 0,2 -1.5,3.6 -3.4,3.6 -1.9,0 -3.4,-1.6 -3.4,-3.6 0,-2 1.5,-3.6 3.4,-3.6 z m -56.1,11.1 c 0,2 -1.5,3.6 -3.4,3.6 -1.9,0 -3.4,-1.6 -3.4,-3.6 0,-2 1.5,-3.6 3.4,-3.6 1.8,0 3.4,1.6 3.4,3.6 z m 20.4,25 c 2.1,-1.1 4.1,-2.6 6,-4.5 1.7,1.5 3.6,2.7 5.3,3.6 1.3,0.7 2.6,1.2 3.9,1.5 -1.2,0 -2.4,0.1 -3.6,0.2 -5.6,0.3 -11.1,0.7 -16.6,1.2 1.7,-0.4 3.3,-1.1 5,-2 z m 29.3,-2.4 c 2.3,-1.5 4.5,-3.6 6.4,-6 1.9,2.4 4.2,4.5 6.4,6 1.8,1.3 3.6,2.2 5.5,2.8 -4,-0.1 -7.9,-0.1 -11.9,-0.1 -3.9,0 -7.9,0 -11.9,0.1 1.8,-0.7 3.6,-1.6 5.5,-2.8 z m 30.8,1.5 c 1.7,-0.9 3.6,-2.1 5.3,-3.6 1.9,1.9 3.9,3.4 6,4.5 1.7,0.9 3.3,1.5 4.9,1.9 -5.5,-0.5 -11.1,-0.9 -16.6,-1.2 -1.2,-0.1 -2.4,-0.1 -3.6,-0.2 1.4,-0.2 2.7,-0.7 4,-1.4 z m -102.6,5.3 c 2.3,1 4.3,1.6 6.2,1.9 -3.4,0.6 -6.8,1.3 -10.1,2.1 1.3,-1.1 2.8,-2.5 3.9,-4 z m 20.9,-6.7 c 1.2,1.2 2.1,2.2 3.4,3 2.1,1.3 4.9,1.8 7.5,1.9 -0.3,0 -0.5,0.1 -0.8,0.1 -5.9,0.6 -11.6,1.4 -17.3,2.3 2.8,-1.4 5.1,-3.9 7.2,-7.3 z m 111.2,3 c 1.3,-0.8 2.2,-1.8 3.4,-3 2.1,3.4 4.5,5.9 7.3,7.3 -5.7,-0.9 -11.5,-1.7 -17.3,-2.3 -0.3,0 -0.5,-0.1 -0.8,-0.1 2.4,-0.2 5.3,-0.7 7.4,-1.9 z m 24.3,3.7 c 1.1,1.5 2.6,2.9 3.9,3.9 -3.3,-0.7 -6.7,-1.4 -10.1,-2.1 1.9,-0.2 3.9,-0.8 6.2,-1.8 z M 427.3,215.9 c -1.2,11.4 2.3,20.4 8.7,29.7 -1.4,2.7 -2.5,5.4 -2.8,8.5 -3.5,-2 -6,-1.4 -9,0.3 3.6,2.3 5.9,3.9 6.5,8.3 -2.5,-0.2 -5,-0.5 -7.5,-0.7 0.3,1.7 1,3.4 2.2,5 -2.9,2.4 -3.7,5.4 -8.4,6.7 3,2.1 4.8,3.7 9.9,3.3 -1.3,2.9 -1.5,6.2 0.4,9 1.6,-4.4 2.6,-5.2 6.2,-5.2 1.6,0 4.3,0.1 4.7,-1.1 0,0.4 0.1,0.8 0.1,1.2 0,3 -0.7,5.9 -2.1,7.9 -1.3,1.9 -3.7,4.1 -6.1,4.1 -2.6,0 -5.4,-1.8 -7.7,-3.4 0.7,-1 1,-2.3 1,-3.6 0,-1.8 -0.7,-3.4 -1.7,-4.5 -1.1,-1.2 -2.7,-2 -4.5,-2 -1.8,0 -3.3,0.8 -4.5,2 -1.1,1.2 -1.7,2.8 -1.7,4.5 0,1.8 0.7,3.4 1.7,4.6 0.8,0.9 1.9,1.6 3.1,1.8 -1.1,1.9 -2.6,4.1 -4.8,4.1 -2.6,0 -5.5,-1.5 -8.4,-3.9 -1.1,-0.9 -1.9,-2.1 -2.8,-3.3 5.6,1 10.1,-2.2 9.6,-5.2 -2.2,0.2 -2.5,1 -4.6,0.1 2.1,-1.7 4.4,-3.5 6,-5.3 l 2.2,-2.1 c -2.3,-1.3 -5.2,-2.7 -7.7,-3.6 1,-2.6 1,-5.1 -1.2,-5.9 -0.6,1.9 -1.3,4.3 -3.7,4.2 -1.7,-0.1 -3.9,0 -5.4,1.1 -0.7,0.5 -1.3,1.1 -1.9,1.8 -2.3,-5.6 -3.9,-7.5 -7.6,-9.9 -0.7,1.2 -1.2,2.6 -1.6,4.2 -0.7,-0.6 -1.6,-1.2 -2.6,-1.6 l 3.4,-13.7 c -11,-15.3 -4.2,-29.3 3.5,-35.6 7.2,-5.9 21,-9.3 39.1,-1.8 z M 391,290.1 c -1.2,0.6 -2.7,-0.1 -3.5,-1.6 -0.7,-1.5 -0.4,-3.2 0.8,-3.8 1.2,-0.6 2.7,0.1 3.5,1.6 0.7,1.6 0.4,3.3 -0.8,3.8 z m 24.1,27.3 3.4,-3.7 5.7,1 -3.6,4.3 z m 164.2,1.6 -3.6,-4.3 5.7,-1 3.4,3.7 z m 33.2,-30.5 c -0.7,1.5 -2.3,2.2 -3.5,1.6 -1.2,-0.6 -1.5,-2.3 -0.8,-3.8 0.7,-1.5 2.3,-2.2 3.5,-1.6 1.2,0.6 1.5,2.3 0.8,3.8 z"
     id="path7"
     style="display:inline;fill:#22558c" /><g
     id="g27"><path
       class="st1"
       d="m 375.4,709.1 c -2.5,-3.3 -11.1,-9.6 -19.7,-2.8 -8.7,6.8 -6.1,15.8 -3.1,20 3,4.2 12.8,10 20.9,2.2 8,-7.7 4.4,-16.1 1.9,-19.4 z m -6.2,13.3 c -6.1,5.5 -12.2,7 -15.2,2.8 -3,-4.2 1,-9.2 6.8,-13.5 5.8,-4.3 10.2,-4.8 12.8,-1.7 2.5,3.1 1.7,6.9 -4.4,12.4 z"
       id="path8"
       style="display:inline;fill:#FED32C" /><path
       class="st1"
       d="m 431.8,762.1 3.7,-6.6 -22.5,-12.4 -3.7,6.6 1.8,1 c 1.9,-1.7 4.5,-4.1 6.8,-2.8 l 2.6,1.5 -10.5,19.1 c -0.6,1 -1.4,0.9 -4.1,-0.6 l -1,1.8 12.7,7 1,-1.8 c -2.9,-1.6 -3.2,-2.2 -2.5,-3.5 l 10.4,-18.8 2.7,1.5 c 2.2,1.2 1.8,4.3 1.2,7.2 z"
       id="path9"
       style="display:inline;fill:#FED32C" /><path
       class="st1"
       d="m 555.9,777.6 c -0.5,4.8 -1.1,7.3 -4.9,8.3 l -4.1,1.1 c -0.8,0.2 -1.8,-0.2 -2.1,-1.3 l -4.9,-18.6 c -0.5,-1.8 0.6,-2.6 3.4,-3.3 l -0.5,-1.7 -14.1,3.7 0.5,1.7 c 2.7,-0.7 3.8,-0.5 4.2,0.9 l 5,18.9 c 0.6,2.1 -1.2,2.4 -3.2,2.9 l 0.5,1.9 23.5,-6.2 -2,-8.6 z"
       id="path10"
       style="display:inline;fill:#FED32C" /><path
       class="st1"
       d="m 625,735.4 c 1.6,4.5 2.3,7 -0.8,9.7 l -3.2,2.8 c -0.6,0.5 -1.7,0.7 -2.5,-0.3 L 605.9,733 c -1.2,-1.4 -0.5,-2.6 1.6,-4.4 l -1.2,-1.3 -11,9.5 1.2,1.3 c 2.1,-1.8 3.2,-2.1 4.1,-1 l 12.8,14.8 c 1.4,1.7 0,2.6 -1.6,4 l 1.3,1.5 18.4,-15.9 -5.6,-6.8 z"
       id="path11"
       style="display:inline;fill:#FED32C" /><path
       class="st1"
       d="M 647.7,709.7 637,701 c -1.6,-1.3 -1.3,-2.9 0.7,-5.4 l -1.5,-1.2 -7.2,8.9 1.5,1.2 c 1.8,-2.2 3.5,-2.5 4.5,-1.7 l 11.1,9.1 c 3.2,2.6 3.5,6.4 1,9.5 -2.1,2.5 -5.6,3.7 -9.3,0.7 l -11.5,-9.3 c -1.1,-0.9 -1.1,-1.8 0.7,-4 l -1.5,-1.3 -8.7,10.7 1.5,1.2 c 1.8,-2.2 2.9,-2 4.1,-1 l 10.9,8.9 c 5.9,4.8 11.2,1 15.4,-3.9 2.4,-2.7 4.4,-9.3 -1,-13.7 z"
       id="path12"
       style="display:inline;fill:#FED32C" /><path
       class="st1"
       d="m 490.2,789.8 -6.1,-22.5 -4.1,-0.5 -11.5,21.5 c -0.9,1.7 -1.8,2.2 -4.7,1.8 l -0.2,2 10.8,1.2 0.2,-2 c -4,-0.5 -4.7,-1.1 -4,-2.5 l 2.5,-4.7 9.1,1 1.4,4.9 c 0.9,2.9 -1.3,2.2 -3.5,2 l -0.2,2 14.4,1.6 0.2,-2 c -3.1,-0.3 -3.8,-1.9 -4.3,-3.8 z m -16,-7.5 4.7,-8.8 2.8,9.6 z"
       id="path13"
       style="display:inline;fill:#FED32C" /><path
       class="st1"
       d="m 600,757.2 c 0,5.5 -1.9,7.9 -4.7,9.4 -4.6,2.4 -9.4,-1.1 -13,-7.4 -3.6,-6.3 -2.3,-11.5 0.3,-13 2.4,-1.4 6.6,-2.3 11.8,3.4 l 1.4,-0.9 -5.5,-8.3 -1.5,1.1 0.7,1.2 c -4.1,-0.1 -6.4,0.7 -7.9,1.6 -1.3,0.7 -3.3,2.1 -4.6,4.2 -2.1,3.4 -4,9.8 -0.6,15.2 3.4,5.6 7.9,7.7 12.2,7.7 5,0 8.1,-2.1 10.9,-5.2 2.2,-2.4 2.3,-5.9 2,-9 z"
       id="path14"
       style="display:inline;fill:#FED32C" /><path
       class="st1"
       d="m 525,785 c -1.4,4.6 -2.4,7 -6.4,7.3 l -4.3,0.3 c -0.8,0.1 -1.7,-0.5 -1.8,-1.7 l -1.4,-19.2 c -0.1,-1.9 1.1,-2.4 3.9,-2.6 l -0.1,-1.8 -14.5,1 0.1,1.8 c 2.8,-0.2 3.8,0.2 3.9,1.6 l 1.4,19.5 c 0.2,2.2 -1.6,2.1 -3.7,2.2 l 0.1,1.9 24.3,-1.7 -0.4,-8.8 z"
       id="path15"
       style="display:inline;fill:#FED32C" /><path
       class="st1"
       d="m 399.4,732 c -3.1,-2.8 -12.7,-7.4 -19.9,1 -7.2,8.3 -3,16.7 0.7,20.3 3.7,3.6 14.5,7.4 20.9,-1.7 6.5,-9.2 1.3,-16.8 -1.7,-19.6 z m -3.6,14.3 c -5,6.5 -10.7,9.1 -14.4,5.6 -3.7,-3.6 -0.8,-9.2 4.1,-14.5 4.9,-5.3 9.1,-6.6 12.2,-4.1 3.1,2.6 3.1,6.5 -1.9,13 z"
       id="path16"
       style="display:inline;fill:#FED32C" /><path
       class="st1"
       d="m 454.2,761.7 -14.6,-4.8 -0.6,1.8 c 2.7,0.9 3.3,1.7 2.8,3.2 l -6,18.2 c -0.4,1.3 -1.4,1.6 -4.1,0.7 l -0.6,1.8 14.6,4.8 c 5.5,1.8 11.1,0 12.2,-4 1.4,-4.7 -1.1,-6.9 -5.2,-9.3 4.7,-0.1 7.5,-1.8 8,-4.1 0.8,-3.7 -0.4,-6.2 -6.5,-8.3 z m -3.1,18.5 c -0.7,3 -3.3,5.9 -6.8,4.7 l -2.7,-0.9 3.6,-11 2.1,0.7 c 3.1,1 4.4,3.9 3.8,6.5 z m 2.5,-12.4 c -0.7,2.7 -4,4.7 -5.9,4 l -1.9,-0.6 3.1,-9.3 1.6,0.5 c 1.9,0.7 3.7,3 3.1,5.4 z"
       id="path17"
       style="display:inline;fill:#FED32C" /><path
       class="st1"
       d="m 352.9,692.5 c -2.6,1.5 -4.2,1.6 -5.6,-0.8 l -1.6,-2.8 9.1,-5.3 3.4,5.8 c 1.4,1.9 -0.3,4.4 -2.2,6.5 l 1.1,2 6.3,-3.6 -11.9,-20.6 -1.8,1.1 c 1.9,3.2 1.4,3.5 -0.1,4.4 l -16.9,9.8 c -1.3,0.7 -1.8,-0.2 -3.1,-2.5 l -1.8,1.1 7,12.1 1.8,-1.1 c -1.1,-1.9 -1.4,-3.4 -0.3,-4.1 l 8.2,-4.8 1.6,2.8 c 1.3,2.2 0.3,3.9 -2.4,5.4 l 0.9,1.6 9.4,-5.4 z"
       id="path18"
       style="display:inline;fill:#FED32C" /><path
       class="st1"
       d="m 667.7,677.8 c -4.3,-2.2 -7,-0.2 -10.1,3.4 0.8,-4.6 -0.4,-7.7 -2.6,-8.6 -3.4,-1.5 -6.1,-0.8 -9.3,4.9 l -7.4,13.4 1.6,0.9 c 1.4,-2.5 2.3,-2.9 3.7,-2.2 l 16.8,9.3 c 1.2,0.7 1.3,1.6 -0.1,4.2 l 1.6,0.9 7.5,-13.4 c 2.7,-5.1 2,-11 -1.7,-12.8 z m -13.2,7.9 -1,1.8 -8.6,-4.8 0.8,-1.5 c 1,-1.8 3.6,-3.1 5.9,-2.1 2.5,1.1 3.8,4.8 2.9,6.6 z m 12.1,5.7 -1.4,2.5 -10.1,-5.6 1.1,-1.9 c 1.6,-2.9 4.6,-3.7 7.1,-2.6 2.8,1.3 5.1,4.4 3.3,7.6 z"
       id="path19"
       style="display:inline;fill:#FED32C" /></g><g
     id="g26"><path
       class="st1"
       d="m 441,400.4 5,23 c 0.7,3.3 0.7,7 -5.7,8.4 l 0.6,2.7 18.2,-3.9 -0.6,-2.7 c -5.5,1.2 -8,-1.6 -8.8,-5.4 l -4.9,-22.7 33.4,26.5 5.4,-1.2 -7.4,-34 c -0.8,-3.5 0.2,-6.2 5.7,-7.4 l -0.6,-2.7 -17.8,3.9 0.6,2.7 c 5.4,-1.2 7.7,1.5 8.3,3.9 l 4.4,20.1 -29.2,-23.2 -15.9,3.4 0.6,2.7 c 5.8,-1.2 8,2.9 8.7,5.9 z"
       id="path20"
       style="display:inline;fill:#FED32C" /><path
       class="st1"
       d="m 508.2,422.4 c -6.5,-0.7 -7.8,-1.6 -6.5,-4.1 l 4,-7.7 14.9,1.5 2.4,7.9 c 1.5,4.8 -2,3.6 -5.7,3.3 l -0.3,3.2 23.7,2.4 0.3,-3.2 c -5.2,-0.5 -6.4,-3.2 -7.2,-6.2 l -10.4,-36.9 -6.7,-0.7 -18.4,35.5 c -1.5,2.9 -2.9,3.6 -7.7,3.1 l -0.3,3.2 17.8,1.8 z m 6.6,-29.4 4.8,15.7 -12.3,-1.2 z"
       id="path21"
       style="display:inline;fill:#FED32C" /><path
       class="st1"
       d="m 587.9,432.9 -9,12.5 3,2.1 1.2,-1.6 c 4.4,7.4 10.1,13.3 17.5,15.3 8.1,2.1 15.4,-2.4 17,-8.5 1.6,-6.2 -2.2,-10.8 -5.1,-15.3 -2,-3 -6.4,-7.5 -5.2,-11.9 0.8,-2.9 5.2,-4.8 8.1,-4 4.9,1.3 9.2,7.9 5.2,19.6 l 2.1,1.6 8.8,-12.2 -3,-2.1 -1.3,1.8 c -2.4,-5.8 -8.5,-12 -14.6,-13.6 -8.4,-2.2 -15.1,2.3 -16.6,8.1 -2,7.5 2.8,12.2 6.7,17.8 1.9,2.7 4.2,6 3.3,9.4 -0.8,3 -4.5,5.3 -8.1,4.3 -7.4,-2 -11,-10.6 -7.7,-21.6 z"
       id="path22"
       style="display:inline;fill:#FED32C" /><path
       class="st1"
       d="m 357.2,503.8 2.5,2 11.1,-14 -2.6,-2 c -4.1,5.1 -5.6,5.7 -7,3.3 l -4.3,-7.5 9.3,-11.8 8,2.2 c 4.8,1.4 2,3.7 -0.3,6.6 l 2.6,2 14.8,-18.6 -2.6,-2 c -3.3,4.1 -6.1,3.7 -9.2,2.7 l -36.7,-11.1 -4.2,5.3 20,34.7 c 1.7,2.8 1.6,4.4 -1.4,8.2 z m -10.1,-35.4 15.8,4.4 -7.7,9.7 z"
       id="path23"
       style="display:inline;fill:#FED32C" /><path
       class="st1"
       d="m 580.5,427 c 0,-6.4 -4.8,-9.9 -8.8,-13.5 -2.7,-2.4 -8.1,-5.7 -8,-10.2 0,-3 3.9,-5.9 6.9,-5.9 5.1,0 10.8,5.3 10,17.6 l 2.5,1 5.4,-14 -3.4,-1.3 -0.8,2.1 c -3.8,-5 -11.2,-9.5 -17.5,-9.5 -8.6,0 -14,6 -14.1,12 -0.1,7.7 5.7,11.1 10.9,15.6 2.5,2.2 5.6,4.8 5.5,8.3 -0.1,3.1 -3,6.2 -6.8,6.2 -7.7,0 -13.3,-7.5 -12.9,-19 l -2.5,-1 -5.6,14.3 3.4,1.3 0.7,-1.9 c 6.1,6.1 13.1,10.3 20.8,10.4 8.4,0 14.3,-6.2 14.3,-12.5 z"
       id="path24"
       style="display:inline;fill:#FED32C" /><path
       class="st1"
       d="M 645.1,452.5 618.9,472 c -1.8,1.1 -2.5,0.3 -5.5,-3.9 l -2,1.5 14,18.8 2,-1.5 c -2.3,-3.1 -3.4,-5 -1.5,-6.3 l 11.8,-8.7 0.5,0.7 c 0.5,0.6 0.5,1.6 0.2,2.3 l -6.7,21.9 9.7,13.1 2,-1.5 c -2.3,-4 -1.9,-4.7 -1.3,-7.4 l 5.1,-19.5 c 6.4,4.7 13.2,4 17,0 3.2,-3.4 3.6,-9.3 -1.2,-15.8 l -16.5,-22.1 -2.6,1.9 c 2.6,3.6 3.5,5.3 1.2,7 z m 12.3,11.3 c 2.3,3.1 0.8,6.8 -2.2,9.4 -3.6,3.2 -9.6,4.5 -12,1.2 L 640,470 654.2,459.4 Z"
       id="path25"
       style="display:inline;fill:#FED32C" /><path
       class="st1"
       d="m 375.3,431.7 18.5,25.5 c 2.1,2.9 -0.4,4.2 -3.2,6.3 l 1.8,2.5 32.5,-23.6 -8,-11.7 -1.6,1.3 c 1.9,7.5 2.6,11.7 -2.8,15.6 l -5.7,4.2 c -1.1,0.8 -2.8,0.8 -4,-0.8 l -18.2,-25.1 c -1.8,-2.5 -0.5,-4.3 3.3,-7 l -1.7,-2.3 -19.5,14.1 1.7,2.3 c 3.7,-2.8 5.5,-3.1 6.9,-1.3 z"
       id="path26"
       style="display:inline;fill:#FED32C" /></g></g>
</svg>